<svg xmlns="http://www.w3.org/2000/svg" width="473.41" height="627.981" viewBox="0 0 473.41 627.981">
  <g id="Group_7" data-name="Group 7" transform="translate(-2943.742 -335)">
    <circle id="Ellipse_1" data-name="Ellipse 1" cx="36.396" cy="36.396" r="36.396" transform="translate(3229.085 512.625)" fill="#2f2e41"/>
    <path id="Path_5" data-name="Path 5" d="M576.095,314.4a36.4,36.4,0,0,1,32.039,53.669,36.387,36.387,0,1,0-60.454-39.982A36.306,36.306,0,0,1,576.095,314.4Z" transform="translate(2699.526 199.226)" fill="#2f2e41"/>
    <circle id="Ellipse_2" data-name="Ellipse 2" cx="106.912" cy="106.912" r="106.912" transform="translate(3090.558 335.119)" fill="#2f2e41"/>
    <path id="Path_6" data-name="Path 6" d="M414.036,176.471A106.893,106.893,0,0,1,562.2,165.261c-.874-.831-1.739-1.669-2.648-2.476A106.913,106.913,0,1,0,417.489,322.592c.909.807,1.842,1.568,2.77,2.339a106.893,106.893,0,0,1-6.223-148.46Z" transform="translate(2699.526 199.226)" fill="#2f2e41"/>
    <circle id="Ellipse_3" data-name="Ellipse 3" cx="68.859" cy="68.859" r="68.859" transform="translate(3127.706 410.319)" fill="#ffb8b8"/>
    <path id="Path_7" data-name="Path 7" d="M532.214,367.505l-73.689,3.313s6.15,38.108-33.715,41.732-76.107-7.248-90.6,19.933-8.248,123.966-8.248,123.966S353.139,654.3,374.884,668.8,586.9,663.362,586.9,663.362l79.629-100.545-2.7-77.539c-1.408-40.491-38.377-70.892-78.193-63.4q-1.173.221-2.362.475s-8.747-6.538-32.747-18.538C535.849,396.479,532.214,367.505,532.214,367.505Z" transform="translate(2699.526 199.226)" fill="#cacaca"/>
    <path id="Path_8" data-name="Path 8" d="M372.26,410.738s17.514,31.778,10.266,77.08S405.69,628.932,405.69,628.932l21.745-5.436s-14.5-94.228-10.872-115.973,4.624-85.913-13.5-96.785S372.26,410.738,372.26,410.738Z" transform="translate(2699.526 199.226)" fill="#2f2e41"/>
    <path id="Path_9" data-name="Path 9" d="M582,427.4l7.617,200.626,14.5,9.06s20.839-220.167,9.966-220.167H591.956a9.97,9.97,0,0,0-9.97,9.97Q581.986,427.145,582,427.4Z" transform="translate(2699.526 199.226)" fill="#2f2e41"/>
    <circle id="Ellipse_4" data-name="Ellipse 4" cx="9.06" cy="9.06" r="9.06" transform="translate(3106.122 805.507)" fill="#f50057"/>
    <circle id="Ellipse_5" data-name="Ellipse 5" cx="9.06" cy="9.06" r="9.06" transform="translate(3287.33 814.567)" fill="#f50057"/>
    <path id="Path_10" data-name="Path 10" d="M323.672,58.069v68.859h15.947l20.3-21.745L357.2,126.928h70.489l-4.349-21.745,8.7,21.745h11.235V58.069Z" transform="translate(2814 335.035)" fill="#2f2e41"/>
    <ellipse id="Ellipse_6" data-name="Ellipse 6" cx="5.436" cy="9.966" rx="5.436" ry="9.966" transform="translate(3121.364 454.716)" fill="#ffb8b8"/>
    <ellipse id="Ellipse_7" data-name="Ellipse 7" cx="5.436" cy="9.966" rx="5.436" ry="9.966" transform="translate(3260.893 454.716)" fill="#ffb8b8"/>
    <path id="Path_11" data-name="Path 11" d="M717.626,744.255v6.07a13.34,13.34,0,0,1-.91,4.87,13.682,13.682,0,0,1-.97,2,13.437,13.437,0,0,1-11.55,6.56H257.646a13.438,13.438,0,0,1-11.55-6.56,13.692,13.692,0,0,1-.97-2,13.341,13.341,0,0,1-.91-4.87v-6.07a13.426,13.426,0,0,1,13.423-13.43h25.747v-2.83a.559.559,0,0,1,.558-.56h13.432a.559.559,0,0,1,.56.558v2.832h8.39v-2.83a.559.559,0,0,1,.558-.56h13.432a.559.559,0,0,1,.56.558v2.832h8.4v-2.83a.559.559,0,0,1,.558-.56h13.432a.559.559,0,0,1,.56.558v2.832h8.39v-2.83a.559.559,0,0,1,.558-.56h13.432a.559.559,0,0,1,.56.558v2.832h8.39v-2.83a.559.559,0,0,1,.558-.56h13.432a.559.559,0,0,1,.56.558v2.832h8.4v-2.83a.559.559,0,0,1,.558-.56H412.1a.559.559,0,0,1,.56.558v2.832h8.39v-2.83a.559.559,0,0,1,.558-.56h105.2a.559.559,0,0,1,.56.558v2.832h8.4v-2.83a.559.559,0,0,1,.558-.56h13.432a.566.566,0,0,1,.56.56v2.83h8.39v-2.83a.559.559,0,0,1,.558-.56H572.7a.559.559,0,0,1,.56.558v2.832h8.39v-2.83a.559.559,0,0,1,.558-.56h13.432a.559.559,0,0,1,.56.558v2.832h8.4v-2.83a.559.559,0,0,1,.558-.56h13.432a.557.557,0,0,1,.55.56v2.83h8.4v-2.83a.559.559,0,0,1,.558-.56h13.432a.559.559,0,0,1,.56.558v2.832h8.39v-2.83a.559.559,0,0,1,.558-.56h13.432a.559.559,0,0,1,.56.558v2.832H704.2a13.426,13.426,0,0,1,13.43,13.423Z" transform="translate(2699.526 199.226)" fill="#3f3d56"/>
    <path id="Path_12" data-name="Path 12" d="M681.668,488.621H272.625a11.259,11.259,0,0,0-11.259,11.259V727.791a11.259,11.259,0,0,0,11.259,11.259H681.668a11.259,11.259,0,0,0,11.259-11.259V499.88a11.259,11.259,0,0,0-11.259-11.259Z" transform="translate(2699.526 199.226)" fill="#3f3d56"/>
    <circle id="Ellipse_8" data-name="Ellipse 8" cx="25" cy="25" r="25" transform="translate(3152 742.416)" fill="#f50057"/>
  </g>
</svg>
