<svg xmlns="http://www.w3.org/2000/svg" width="394.093" height="369.111" viewBox="0 0 394.093 369.111"><g transform="translate(-52.236 -103.469)"><circle cx="20.618" cy="20.618" r="20.618" transform="translate(62.802 224.645)" fill="#ebebeb"/><circle cx="7.565" cy="7.565" r="7.565" transform="translate(142.478 194.812)" fill="#ebebeb"/><circle cx="7.565" cy="7.565" r="7.565" transform="translate(422.855 383.918) rotate(-76.761)" fill="#ebebeb"/><circle cx="7.565" cy="7.565" r="7.565" transform="translate(359.479 193.888) rotate(-45)" fill="#f5f5f5"/><circle cx="26.279" cy="26.279" r="26.279" transform="translate(382.996 330.659) rotate(-76.564)" fill="#ebebeb"/><circle cx="14.511" cy="14.511" r="14.511" transform="translate(52.236 374.569) rotate(-89.082)" fill="#ebebeb"/><path d="M104.617,344.862s-7.418,3,1.137,18.752,14.4,23.5,14.4,23.5,1.54,3.668-1.564,4.324-10-.261-11.29,3.591c-1.338,4,1.634,7.655,7.548,10.779s18.619,10.445,19.765,11.111c1.126.654,2.281,2.35.239,3.136s-17.447,2.8-16.055,10.05,19.3,13.249,21.243,13.942,2.426,1.5,2.3,2.559-5.371,1.249-9.729,2-9.279,2.388-8.125,6.5,11.886,12.552,37.465,14.391l11.908.076,6.214-10.219c11.966-22.681,10.484-36.251,7.6-39.408s-6.875.155-9.818,3.456-5.874,7.65-6.843,7.2-1.4-1.285-.957-3.3,4.821-20.385-.6-25.4-15.274,6.992-17.021,8.31-2.575-.559-2.535-1.86c.041-1.326.548-15.981,1.024-22.652s-1.058-11.129-5.157-12.106c-3.952-.942-6.82,5.395-9.019,7.682s-4.5-.959-4.5-.959-3.49-9.063-12.33-24.652-15.452-10.732-15.452-10.732" fill="#f5f5f5"/><path d="M174.546,472.363c-6.447-11.474-17.564-32.061-27.2-49.687s-18.369-33.564-24.757-45.07l-7.58-13.619c-.888-1.6-1.58-2.844-2.059-3.7l-.527-.969c-.117-.219-.168-.336-.168-.336s.073.105.2.318l.559.95,2.119,3.67c1.837,3.19,4.462,7.824,7.683,13.563,6.448,11.474,15.221,27.4,24.854,45.02s20.715,38.231,27.1,49.737" fill="#e0e0e0"/><path d="M116.9,396.7a3.9,3.9,0,0,1,.836.21c.531.155,1.293.4,2.231.718,1.875.633,4.441,1.573,7.255,2.662l7.194,2.815,2.184.838a3.908,3.908,0,0,1,.791.34,3.862,3.862,0,0,1-.838-.2c-.531-.158-1.293-.4-2.228-.73-1.869-.652-4.423-1.625-7.236-2.715l-7.21-2.761-2.19-.828A3.885,3.885,0,0,1,116.9,396.7Z" fill="#e0e0e0"/><path d="M138.181,403.5c-.1-.032,1.609-5.41,3.81-12.009s4.064-11.927,4.161-11.894-1.608,5.409-3.81,12.011S138.278,403.537,138.181,403.5Z" fill="#e0e0e0"/><path d="M151.756,431.234a4.016,4.016,0,0,1,.464-.747l1.36-1.966c1.145-1.66,2.717-3.96,4.359-6.561s3.057-5,4.064-6.75l1.194-2.07a4.092,4.092,0,0,1,.475-.739,3.958,3.958,0,0,1-.348.807c-.247.509-.616,1.238-1.093,2.129-.949,1.784-2.327,4.215-3.98,6.821s-3.257,4.892-4.458,6.516c-.6.809-1.1,1.459-1.457,1.9A4.049,4.049,0,0,1,151.756,431.234Z" fill="#e0e0e0"/><path d="M131.15,429.319a3.527,3.527,0,0,1,.814-.007l2.206.118c1.862.115,4.432.3,7.269.527s5.4.453,7.261.635l2.2.235a3.5,3.5,0,0,1,.8.136,3.4,3.4,0,0,1-.813.008l-2.206-.118c-1.862-.115-4.432-.3-7.27-.527s-5.4-.453-7.26-.635l-2.2-.235A3.411,3.411,0,0,1,131.15,429.319Z" fill="#e0e0e0"/><path d="M140.024,455.322a5.532,5.532,0,0,1,1.041,0l2.828.14c2.387.134,5.683.346,9.321.6s6.933.509,9.315.71l2.82.258a5.7,5.7,0,0,1,1.03.144,5.524,5.524,0,0,1-1.04,0l-2.828-.14c-2.387-.134-5.683-.346-9.323-.6s-6.931-.509-9.313-.71l-2.82-.257A5.63,5.63,0,0,1,140.024,455.322Z" fill="#e0e0e0"/><path d="M165.762,456.956a6.444,6.444,0,0,1,.564-.962l1.634-2.553c1.377-2.158,3.268-5.145,5.261-8.5s3.73-6.438,4.966-8.679l1.467-2.653a6.457,6.457,0,0,1,.575-.954,6.306,6.306,0,0,1-.447,1.02c-.31.646-.773,1.574-1.364,2.711-1.179,2.275-2.876,5.384-4.879,8.745s-3.926,6.332-5.361,8.455c-.72,1.06-1.311,1.912-1.733,2.491A6.483,6.483,0,0,1,165.762,456.956Z" fill="#e0e0e0"/><path d="M322.334,470.365c-18.947-10.566-25.29-33.1-26.682-53.8-.233-3.454-.979-7.045.352-10.232s4.943-5.639,8.173-4.5c2.679.944,4.1,3.8,5.774,6.12a20.24,20.24,0,0,0,8.857,6.892c2.308.916,5.091,1.336,7.134-.077,2.8-1.94,2.737-6.078,2.368-9.5q-1.031-9.567-2.062-19.132c-.368-3.422-.733-6.917,0-10.275s2.782-6.615,5.946-7.859,7.384.227,8.412,3.509a31.717,31.717,0,0,1,.53,4.254c.239,1.412,1.061,2.917,2.451,3.176,1.408.263,2.679-.847,3.6-1.953,3.184-3.816,5.13-8.513,6.922-13.17s3.507-9.411,6.331-13.507,6.957-7.535,11.832-8.311,10.408,1.722,12.136,6.41-.587,9.885-3.255,14.1A76.829,76.829,0,0,1,366.781,379.3a6.316,6.316,0,0,0-2.371,3.133c-.513,2.358,1.88,4.406,4.21,4.927,2.639.592,5.381.045,8.083.089s5.714.928,6.98,3.348c1.757,3.358-.8,7.323-3.434,10.018a65.79,65.79,0,0,1-18.242,13.152c-2.426,1.177-4.995,2.255-6.846,4.231s-2.765,5.177-1.294,7.464,4.7,2.743,7.29,1.985,4.8-2.429,7.223-3.632c4.525-2.254,10.635-2.546,14.062,1.215,2.252,2.472,2.8,6.177,2.125,9.465a25.121,25.121,0,0,1-4.332,8.989,66.172,66.172,0,0,1-26.109,22.609c-10.531,4.893-20.541,6.943-31.792,4.077" fill="#f5f5f5"/><path d="M326.346,456.895a308.408,308.408,0,0,1,8.828-34.269l2.775-8.864c.918-2.907,1.827-5.79,2.891-8.554a153.985,153.985,0,0,1,7.026-15.538c2.473-4.834,5-9.331,7.387-13.518s4.71-8.042,6.966-11.468a122.171,122.171,0,0,1,11.838-15.36c1.534-1.7,2.767-2.976,3.615-3.831.408-.406.728-.726.97-.966a2.561,2.561,0,0,1,.345-.313,2.444,2.444,0,0,1-.3.359l-.924,1.01c-.817.883-2.021,2.187-3.525,3.908a129.084,129.084,0,0,0-11.646,15.443c-2.226,3.432-4.509,7.294-6.885,11.484s-4.872,8.7-7.325,13.524a155.7,155.7,0,0,0-6.964,15.492c-1.054,2.751-1.953,5.609-2.87,8.524s-1.836,5.869-2.772,8.86a316.2,316.2,0,0,0-8.859,34.188" fill="#e0e0e0"/><path d="M341.018,405.165a7,7,0,0,1-.483-1.427c-.276-.928-.63-2.283-1.044-3.964-.83-3.36-1.818-8.04-2.887-13.2s-2.122-9.818-3-13.156c-.435-1.67-.8-3.019-1.064-3.947A6.925,6.925,0,0,1,332.2,368a6.839,6.839,0,0,1,.577,1.392c.337.907.769,2.241,1.26,3.9.993,3.32,2.119,7.976,3.189,13.146,1.043,5.1,1.985,9.71,2.706,13.234.335,1.59.619,2.929.847,4A6.9,6.9,0,0,1,341.018,405.165Z" fill="#e0e0e0"/><path d="M384.207,392.47a9.546,9.546,0,0,1-1.735.389c-1.12.215-2.741.518-4.732.956-3.987.844-9.456,2.2-15.423,3.967s-11.3,3.61-15.113,5.05c-1.915.706-3.448,1.319-4.511,1.737a9.576,9.576,0,0,1-1.675.6,9.369,9.369,0,0,1,1.579-.826c1.035-.488,2.547-1.167,4.446-1.931,3.786-1.551,9.112-3.461,15.1-5.242a155.785,155.785,0,0,1,15.514-3.795c2.008-.383,3.646-.619,4.781-.758A9.5,9.5,0,0,1,384.207,392.47Z" fill="#e0e0e0"/><path d="M326.8,456.03a2.255,2.255,0,0,1-.356-.506l-.914-1.516c-.789-1.32-1.88-3.261-3.2-5.675-2.635-4.828-6.066-11.611-9.75-19.147s-7.051-14.346-9.581-19.221c-1.239-2.37-2.258-4.318-3.015-5.767-.325-.629-.592-1.148-.812-1.574a2.277,2.277,0,0,1-.245-.571,2.309,2.309,0,0,1,.356.508c.248.409.549.909.915,1.515.788,1.32,1.878,3.26,3.2,5.675,2.635,4.827,6.066,11.611,9.752,19.15s7.049,14.342,9.58,19.219c1.239,2.368,2.257,4.318,3.014,5.765l.812,1.575A2.3,2.3,0,0,1,326.8,456.03Z" fill="#e0e0e0"/><path d="M383.392,431.241a2.425,2.425,0,0,1-.556.3c-.442.2-.985.444-1.641.742l-6.059,2.665c-5.115,2.253-12.144,5.444-19.907,8.981s-14.83,6.668-19.993,8.815c-2.582,1.074-4.679,1.922-6.14,2.478l-1.686.631a2.281,2.281,0,0,1-.605.179,2.509,2.509,0,0,1,.556-.3c.441-.2.984-.443,1.642-.741l6.057-2.665c5.116-2.252,12.146-5.444,19.91-8.982s14.827-6.667,19.99-8.814c2.582-1.075,4.679-1.922,6.141-2.479l1.687-.63A2.271,2.271,0,0,1,383.392,431.241Z" fill="#e0e0e0"/><path d="M218.425,127.411a26.845,26.845,0,0,1,12.858-16.27c6.847-3.741,15.119-4.28,22.77-2.748s14.781,5,21.535,8.9c3.789,2.193,7.568,4.6,10.292,8.03,4.971,6.255,5.654,14.787,6.133,22.762.388,6.45.72,13.209-2.006,19.067a19.868,19.868,0,0,1-13.354,10.809" fill="#263238"/><path d="M288.471,159.749a42.653,42.653,0,0,0,10.266-31.7c-.358-3.823-1.406-7.877-4.347-10.347-1.5-1.26-3.376-2-4.906-3.225-2.79-2.233-4.16-5.839-6.812-8.234a10.837,10.837,0,0,0-17.678,5.041c-1.4,4.845.688,9.938,2.731,14.547l9.468,21.361a28.373,28.373,0,0,0,4.348,7.583c1.946,2.186,4.776,3.787,7.692,3.531" fill="#263238"/><path d="M221.661,122.63a36.751,36.751,0,0,0-3.235,45.76,309.392,309.392,0,0,1,16.427-51.2" fill="#263238"/><path d="M214.874,146.436c.828-12.7,9.276-28.259,21.927-26.893l29.272,7.468c9.391,2.4,15.65,10.325,16.334,19.993.034.482.082-.106.074.257l-2.114,76.682a22.9,22.9,0,0,1-23.383,22.213h0a22.9,22.9,0,0,1-22.4-22.855c-.011-6.183-.015-13.468-.017-13.437,0,0-16.218-2.729-19.533-23.9C213.387,175.429,213.954,160.543,214.874,146.436Z" fill="#ffbe9d"/><path d="M243.964,139.815a30.871,30.871,0,0,1-12.407,1.26c0-.153,2.8-.162,6.215-.515S243.93,139.666,243.964,139.815Z" fill="#eb996e"/><path d="M239.236,139.06a15.087,15.087,0,0,1-7.679.413,26.425,26.425,0,0,1,3.838-.229A26.184,26.184,0,0,1,239.236,139.06Z" fill="#eb996e"/><path d="M248.048,180.969c-.142.018-.323-.847-1.178-1.391-.832-.579-1.7-.414-1.739-.552-.021-.059.18-.21.571-.26a2.3,2.3,0,0,1,2.367,1.576C248.173,180.723,248.112,180.966,248.048,180.969Z" fill="#eb996e"/><path d="M221.92,162.813a2.715,2.715,0,0,0,2.612,2.745,2.6,2.6,0,0,0,2.8-2.442,2.717,2.717,0,0,0-2.609-2.746A2.6,2.6,0,0,0,221.92,162.813Z" fill="#263238"/><path d="M218.6,155.423c.336.355,2.4-1.162,5.317-1.148,2.919-.028,5.059,1.48,5.377,1.123.156-.158-.186-.8-1.118-1.48a7.449,7.449,0,0,0-4.3-1.336,7.149,7.149,0,0,0-4.233,1.356C218.739,154.625,218.433,155.265,218.6,155.423Z" fill="#263238"/><path d="M249.948,162.813a2.715,2.715,0,0,0,2.612,2.745,2.6,2.6,0,0,0,2.8-2.441,2.717,2.717,0,0,0-2.61-2.747A2.6,2.6,0,0,0,249.948,162.813Z" fill="#263238"/><path d="M247.311,156.032c.337.355,2.4-1.162,5.319-1.148,2.918-.028,5.059,1.48,5.376,1.123.156-.158-.182-.8-1.118-1.48a7.449,7.449,0,0,0-4.3-1.337,7.162,7.162,0,0,0-4.234,1.356C247.455,155.234,247.147,155.873,247.311,156.032Z" fill="#263238"/><path d="M236.662,177.673c.014-.166-1.8-.484-4.743-.867-.745-.079-1.451-.228-1.576-.737a3.8,3.8,0,0,1,.5-2.21q1.059-2.706,2.219-5.675c3.081-8.081,5.314-14.726,4.987-14.847s-3.09,6.33-6.171,14.411q-1.111,2.988-2.125,5.709a4.312,4.312,0,0,0-.394,2.926,1.873,1.873,0,0,0,1.225,1.094,5.056,5.056,0,0,0,1.266.179C234.814,177.822,236.651,177.839,236.662,177.673Z" fill="#263238"/><path d="M262.644,202.332s-6.889,14.54-28.07,12.512l-.006-4.98A53.323,53.323,0,0,0,262.644,202.332Z" fill="#eb996e"/><path d="M237.882,184.716a5.262,5.262,0,0,1,4.723-1.944,4.8,4.8,0,0,1,3.315,1.787,3.045,3.045,0,0,1,.224,3.482,3.532,3.532,0,0,1-3.832.96,11.05,11.05,0,0,1-3.729-2.236,3.243,3.243,0,0,1-.832-.866.974.974,0,0,1,.006-1.087" fill="#e8505b"/><path d="M245.255,179.713c-.475-.029-.489,3.142-3.208,5.386s-6.093,1.889-6.119,2.332c-.044.2.752.618,2.178.66a7.9,7.9,0,0,0,5.108-1.767,6.878,6.878,0,0,0,2.486-4.517C245.823,180.481,245.471,179.7,245.255,179.713Z" fill="#263238"/><path d="M246.607,147.478c.286.795,3.2.425,6.63.845,3.435.352,6.2,1.362,6.653.65.2-.34-.276-1.088-1.392-1.86a11.627,11.627,0,0,0-10.12-1.14C247.119,146.478,246.484,147.1,246.607,147.478Z" fill="#263238"/><path d="M219.691,146.971c.512.665,2.526-.019,4.946-.046,2.419-.112,4.468.455,4.942-.237.207-.337-.114-1-1.008-1.632a7.158,7.158,0,0,0-7.967.229C219.747,145.965,219.465,146.647,219.691,146.971Z" fill="#263238"/><path d="M220.624,127.1c1.3-3.185,4.79-5.1,8.224-5.272a18.078,18.078,0,0,1,9.764,2.847c12.607,7.287,19.7,21.76,32.151,29.3,3.064,1.854,6.443,3.282,9.049,5.739s4.3,6.381,2.855,9.659a29.63,29.63,0,0,0,4.321-7.31,10,10,0,0,0-.349-8.251c-1.078-1.867-2.981-3.293-3.5-5.385-.46-1.84.266-3.765.187-5.66a12.322,12.322,0,0,0-1.94-5.4c-4.878-8.629-11.591-16.435-20.234-21.288a35.826,35.826,0,0,0-18.578-4.805,27.405,27.405,0,0,0-17.675,7.016c-2.787,2.6-5.716,5.285-4.271,8.81" fill="#263238"/><path d="M282.5,169.443c-.022-.02.244-.289.66-.864a9.22,9.22,0,0,0,1.367-2.764,15.691,15.691,0,0,0-1.162-11.078c-.956-2.216-2.307-4.5-3.688-7a80.87,80.87,0,0,1-3.877-8.258,58.967,58.967,0,0,0-4.434-8.971,35.252,35.252,0,0,0-7.011-8.06,37.225,37.225,0,0,0-18.58-8.558c-6.3-.943-12.227-.016-16.489,2.228a18.01,18.01,0,0,0-7.929,7.914,15.846,15.846,0,0,0-1.093,2.9c-.17.69-.246,1.058-.268,1.055a1.2,1.2,0,0,1,.027-.277c.03-.18.061-.453.139-.8a14.38,14.38,0,0,1,1.012-2.965,17.949,17.949,0,0,1,7.942-8.153c4.32-2.329,10.337-3.307,16.728-2.377a37.457,37.457,0,0,1,18.85,8.637,35.545,35.545,0,0,1,7.1,8.183,58.794,58.794,0,0,1,4.445,9.057,82.393,82.393,0,0,0,3.814,8.239c1.359,2.5,2.7,4.809,3.647,7.062,2.02,4.481,1.941,8.723,1.016,11.286a8.777,8.777,0,0,1-1.475,2.764A5.659,5.659,0,0,1,282.5,169.443Z" fill="#455a64"/><path d="M292.271,158.344a2.679,2.679,0,0,1-.006-.6c.018-.45.041-1.021.07-1.724.055-1.5.125-3.664.042-6.338a54.284,54.284,0,0,0-1.026-9.311A24.785,24.785,0,0,0,286.815,130a57.23,57.23,0,0,0-8.121-8.087c-2.677-2.317-5.174-4.3-7.343-5.863s-4.007-2.715-5.3-3.475l-1.491-.865a2.627,2.627,0,0,1-.509-.326,2.674,2.674,0,0,1,.557.233c.36.164.88.428,1.543.782a56.861,56.861,0,0,1,5.409,3.35c2.208,1.534,4.741,3.5,7.443,5.8a55.636,55.636,0,0,1,8.223,8.136,24.916,24.916,0,0,1,4.592,10.587,51.665,51.665,0,0,1,.924,9.4c.037,2.689-.09,4.861-.208,6.358-.056.748-.12,1.328-.167,1.72A2.679,2.679,0,0,1,292.271,158.344Z" fill="#455a64"/><path d="M282.973,107.2a8.772,8.772,0,0,1,.586,2.4,28.07,28.07,0,0,1-.707,11.849,8.808,8.808,0,0,1-.868,2.314,60.922,60.922,0,0,0,1.335-8.232A61.07,61.07,0,0,0,282.973,107.2Z" fill="#455a64"/><path d="M297.869,122.882a4.518,4.518,0,0,1-.717,1.763,11.429,11.429,0,0,1-7.262,5.336,4.536,4.536,0,0,1-1.9.157,14.336,14.336,0,0,1,1.8-.513,13.16,13.16,0,0,0,7.045-5.176A14.634,14.634,0,0,1,297.869,122.882Z" fill="#455a64"/><path d="M298.914,137.111a10.413,10.413,0,0,1-8.382-.236c.045-.171,1.883.394,4.181.478C297.012,137.4,298.879,136.938,298.914,137.111Z" fill="#455a64"/><path d="M289.711,174.1c-.5-.252-.255-1.649-.188-3.92a10.9,10.9,0,0,0-.446-3.714,5.121,5.121,0,0,0-.387-.856,3.76,3.76,0,0,0-.247-.377c-.074-.115-.232-.329-.349-.491a16.764,16.764,0,0,0-1.747-2.031,5.29,5.29,0,0,0-1.823-1.283c-.23-.078-.288-.006-.182.03l-.743.145-.8.185a14,14,0,0,0-3.009,1.137c-.5.254-1,.545-1.513.867l-.385.248-.657.388a14.425,14.425,0,0,1-1.345.638,13.585,13.585,0,0,1-5.956,1.005,9.825,9.825,0,0,1-3.564-.9l-.461-.229-.364-.217c-.239-.15-.492-.288-.717-.456a12.376,12.376,0,0,1-1.312-1.051,17.31,17.31,0,0,1-3.628-4.945c-.858-1.677-1.5-3.318-2.117-4.812a55.79,55.79,0,0,0-9.094-14.931,60.016,60.016,0,0,0-10.615-9.838,34.128,34.128,0,0,0-8.34-4.788c-2.11-.787-3.487-.994-3.568-1.56-.091-.486,1.259-1.37,4.026-1.446,2.741-.093,6.674.932,10.749,3.072A49.257,49.257,0,0,1,254,133.691,52.917,52.917,0,0,1,265,150.49c.656,1.6,1.219,3.044,1.828,4.28a10.564,10.564,0,0,0,1.918,2.861,5,5,0,0,0,.506.444,3.026,3.026,0,0,0,.263.183l.13.093.059.031a2.294,2.294,0,0,0,.861.258,6.725,6.725,0,0,0,2.785-.3c.223-.073.432-.153.63-.236l.279-.132.533-.287A23.922,23.922,0,0,1,277,156.652a19.353,19.353,0,0,1,4.607-1.228q.56-.078,1.094-.125l.528-.043.6-.033a6.187,6.187,0,0,1,3.352.8,10.652,10.652,0,0,1,3.393,3.137,18.64,18.64,0,0,1,1.822,3.1c.122.269.221.471.347.792a8.3,8.3,0,0,1,.323.92,9.051,9.051,0,0,1,.315,1.75,11.1,11.1,0,0,1-.9,5.155C291.385,173.384,290.155,174.342,289.711,174.1Z" fill="#263238"/><path d="M279.507,162.34c.223-.607,11.265-4.592,11.411,7.145.142,11.4-11.362,9.157-11.385,8.83S279.507,162.34,279.507,162.34Z" fill="#ffbe9d"/><path d="M283.01,173.963c.05-.037.2.137.537.288a1.99,1.99,0,0,0,1.485.016c1.2-.453,2.2-2.375,2.233-4.431a6.568,6.568,0,0,0-.583-2.838,2.3,2.3,0,0,0-1.508-1.511,1.01,1.01,0,0,0-1.167.556c-.15.32-.076.547-.136.567-.032.029-.246-.189-.159-.661a1.263,1.263,0,0,1,.442-.718,1.494,1.494,0,0,1,1.1-.3,2.792,2.792,0,0,1,2.091,1.748,6.753,6.753,0,0,1,.719,3.172c-.052,2.3-1.208,4.46-2.852,4.951a2.129,2.129,0,0,1-1.819-.284C283.033,174.238,282.97,173.984,283.01,173.963Z" fill="#eb996e"/><path d="M288.3,162.168c-.035.017-.129-.294-.483-.771a4.465,4.465,0,0,0-2.046-1.509,8.223,8.223,0,0,0-4.033-.354,19.042,19.042,0,0,0-5.117,1.841,13.5,13.5,0,0,1-6.49,1.645,10.44,10.44,0,0,1-6.738-3.606,21.137,21.137,0,0,1-4.037-7.477c-.951-2.79-1.8-5.693-2.953-8.575a44.048,44.048,0,0,0-8.981-14.818,25.339,25.339,0,0,0-12.069-7.129,22.193,22.193,0,0,0-5.4-.686,19.336,19.336,0,0,0-4.088.492,32.718,32.718,0,0,0-3.35,1.1.753.753,0,0,1,.2-.117l.617-.295a14.082,14.082,0,0,1,2.482-.882,18.8,18.8,0,0,1,4.132-.587,22.044,22.044,0,0,1,5.494.621,25.467,25.467,0,0,1,12.325,7.151,44.017,44.017,0,0,1,9.122,14.963c1.158,2.9,2.015,5.834,2.949,8.6a20.83,20.83,0,0,0,3.911,7.323,10.031,10.031,0,0,0,6.416,3.5c2.354.188,4.461-.756,6.307-1.551a18.979,18.979,0,0,1,5.228-1.794,8.309,8.309,0,0,1,4.147.455,4.429,4.429,0,0,1,2.057,1.637,2.776,2.776,0,0,1,.32.61A.726.726,0,0,1,288.3,162.168Z" fill="#455a64"/><path d="M284.043,156.481a4.53,4.53,0,0,1-.688-.384c-.436-.278-1.109-.647-1.912-1.215a39.231,39.231,0,0,1-6.156-5.6,109.721,109.721,0,0,1-7.527-9.779,89.8,89.8,0,0,0-9.41-11.716,35.873,35.873,0,0,0-6.071-4.8,29.58,29.58,0,0,0-6.56-2.976,32.444,32.444,0,0,0-12.078-1.483,31.135,31.135,0,0,0-8.091,1.585c-.937.285-1.63.6-2.112.783a4.525,4.525,0,0,1-.744.264,4.363,4.363,0,0,1,.7-.36,19.315,19.315,0,0,1,2.087-.878,29.579,29.579,0,0,1,8.132-1.762,32.274,32.274,0,0,1,12.25,1.393,29.778,29.778,0,0,1,6.678,3,35.913,35.913,0,0,1,6.173,4.863,87.164,87.164,0,0,1,9.435,11.81,117.284,117.284,0,0,0,7.412,9.812,42.257,42.257,0,0,0,6,5.684c.779.589,1.43.984,1.847,1.289A4.4,4.4,0,0,1,284.043,156.481Z" fill="#455a64"/><path d="M284.306,175.978a2.245,2.245,0,1,1-.532.169" fill="#fff"/><path d="M283.774,176.147a3.066,3.066,0,0,0-1.026,1.532,1.93,1.93,0,0,0,.446,1.789,1.994,1.994,0,0,0,3.506-1.116,1.932,1.932,0,0,0-.672-1.718,3.067,3.067,0,0,0-1.722-.656c-.007-.028.174-.118.534-.126a2.326,2.326,0,0,1,1.422.5,2.28,2.28,0,0,1,.915,2.056,2.449,2.449,0,0,1-4.341,1.382,2.276,2.276,0,0,1-.443-2.206,2.326,2.326,0,0,1,.872-1.228C283.563,176.152,283.763,176.12,283.774,176.147Z" fill="#263238"/><path d="M240.826,221.708c-2.805.694-6.241,1.593-6.241,1.593l-14.342,34.811-.627,26.677,28.99,25.328,36.924-34.67,3.575-38.484-3.892-19.92Z" fill="#ffbe9d"/><path d="M210.248,365.667l85.029-6.174s36.568,15.678,36.568,88.755V472.58H174.469s-5.886-81.276,33.346-106.913" fill="#263238"/><path d="M279.215,263.123l18.733,24.5-30.679,76.352-54.44,1.21,4.812-97.451,8.311-6.444c-.792,3.587-.86,10.706,1.49,14.827s6.129,7.2,9.8,10.2,7.425,6.127,9.678,10.3c-.912-5.306,2.7-10.458,7.115-13.533s9.666-4.709,14.379-7.311,10.048-7.319,10.8-12.65" fill="#fafafa"/><path d="M206.278,232.082l23.323-6.569,5.185-9.879.926,6.479s-2.739,8.793-2.49,7.963c1.529-5.1-8.709,36.142-8.709,36.142s-7.045,32.094-7.045,37.965-1.566,48.141-1.566,48.141l-10.456,99.2s-31.29-23.324-31.29-29.586c0-1.879,2.557-18.853,4.266-24.13,5.444-16.812,7.945-24.663,16.972-39.856l8.632-14.529L191.192,313.2l6.706-61.465Z" fill="#e8505b"/><path d="M193.915,315.229c-.783-7.045,3.983-63.493,3.983-63.493l8.38-19.654s-9.945,2.042-11.511,3.607-7.459,6.759-9.785,10.568c-20.766,34.01-19.506,77.358-19.506,77.358.609,2.259,6.039,34.783,5.416,31.057l14.978,14.577,13.594-13.4L198.289,339.8S194.7,322.274,193.915,315.229Z" fill="#e8505b"/><path d="M229.6,225.513a2.755,2.755,0,0,1-.4.212l-1.2.57-4.626,2.14-17.018,7.76.082-.282,7.322,11.225.167.256-.294.086-12.2,3.552.178-.235c-.016,7.679.043,16.073.215,24.806.533,21.076.894,40.379,5.513,53.578,1.807,6.679,3.408,12.047,4.518,15.755.553,1.831.985,3.264,1.288,4.267.139.469.248.837.33,1.111a2.152,2.152,0,0,1,.1.384,2.265,2.265,0,0,1-.147-.367l-.379-1.1L211.664,345c-1.17-3.691-2.826-9.045-4.679-15.718-.909-3.342-1.935-6.992-2.8-10.98a104.819,104.819,0,0,1-1.6-12.918c-.712-9.136-1.058-19.2-1.269-29.767-.172-8.738-.222-17.134-.188-24.819v-.184l.177-.051,12.212-3.515-.127.341-7.267-11.261-.123-.19.206-.092,17.089-7.6,4.669-2.046,1.221-.52A2.727,2.727,0,0,1,229.6,225.513Z" fill="#263238"/><path d="M249.649,246.978c.005.046-.319.078-.841.293a4.079,4.079,0,0,0-1.8,1.483,3.437,3.437,0,0,0-.4,3.258,3.578,3.578,0,0,0,6.581.39,3.441,3.441,0,0,0-.015-3.284,4.088,4.088,0,0,0-1.611-1.684c-.493-.275-.811-.345-.8-.39a1.733,1.733,0,0,1,.89.208,4,4,0,0,1,1.844,1.69,4.051,4.051,0,0,1,.533,1.685,3.687,3.687,0,0,1-.417,2,4.032,4.032,0,0,1-7.453-.441,3.687,3.687,0,0,1-.178-2.035,4.055,4.055,0,0,1,.728-1.611,4,4,0,0,1,2.03-1.46A1.733,1.733,0,0,1,249.649,246.978Z" fill="#fff"/><path d="M234.786,224.625c.066-.007.1.986.526,2.705a21.53,21.53,0,0,0,3.23,6.715,57.891,57.891,0,0,0,7.4,8.305,11.07,11.07,0,0,0,2.444,1.984,3.72,3.72,0,0,0,3.071.172,21.447,21.447,0,0,0,3.09-1.518l3.15-1.73a81.186,81.186,0,0,0,11.437-7.428,38.972,38.972,0,0,0,7.64-8.031,28.628,28.628,0,0,0,3.473-6.624c.295-.835.505-1.493.625-1.945a3.654,3.654,0,0,1,.222-.681,3.829,3.829,0,0,1-.12.707,19.034,19.034,0,0,1-.535,1.985,26.994,26.994,0,0,1-3.362,6.766,38.26,38.26,0,0,1-7.641,8.2,78.784,78.784,0,0,1-11.485,7.51l-3.157,1.731a21.788,21.788,0,0,1-3.177,1.547,4.858,4.858,0,0,1-1.765.267,4.1,4.1,0,0,1-1.7-.483,11.374,11.374,0,0,1-2.55-2.082,56.05,56.05,0,0,1-7.369-8.441,20.719,20.719,0,0,1-3.122-6.874,14.166,14.166,0,0,1-.3-2.037A3.722,3.722,0,0,1,234.786,224.625Z" fill="#fff"/><path d="M276.662,209.611c.767.511,10.989,6.938,10.989,6.938l3.067,4.307,37,6.71-4.8,52.542-22.493,72.671s23.976,31.261,28.741,54.835c2.915,14.42,2.673,32.255,2.673,32.255L250.8,453.158s-5.38-18.741-2.5-44.462c1.809-16.163,11.755-64.914,11.755-64.914l13.545-56.99s10.99-47.791,10.734-48.558.511-15.078.511-15.078L279.218,212.6Z" fill="#e8505b"/><path d="M299.9,223.619a2.412,2.412,0,0,1,.311.255l.878.787,3.347,3.066,12.3,11.4.182.169-.218.122-13.841,7.757-.027-.4,13.87,5.474.235.092-.09.205c-1.729,3.943-3.986,7.692-6.2,11.7-2.248,3.972-4.6,8.054-7.014,12.215-11.25,19.323-21.638,36.691-29.174,49.251l-8.972,14.847-2.466,4.02c-.277.439-.493.784-.653,1.038a2.721,2.721,0,0,1-.238.345,2.353,2.353,0,0,1,.192-.372l.609-1.065c.558-.954,1.359-2.321,2.382-4.07,2.1-3.549,5.112-8.644,8.829-14.931,7.456-12.608,17.793-30.006,29.04-49.324l7.019-12.207c2.2-3.972,4.5-7.814,6.173-11.586l.145.3-13.853-5.517-.436-.173.41-.227,13.881-7.686-.036.291L304.3,227.873l-3.282-3.137-.843-.823A2.271,2.271,0,0,1,299.9,223.619Z" fill="#263238"/><g opacity="0.3"><path d="M292.365,295.174c-11.15,17.859-20.766,35.851-31.916,53.71,13.362-5.667,22.059-16.266,26.78-29.991a49.24,49.24,0,0,0,16.306,18.944Q297.951,316.505,292.365,295.174Z"/></g><path d="M327.717,227.566s8.975,3.215,12.376,9.181c5.433,9.529,9.943,41.43,9.437,49.877-1.6,26.671-14.64,54.733-15.387,54.372,0,0-6.127,4.963-12.427,4.963a31.99,31.99,0,0,1-5.577-.583,18.783,18.783,0,0,1-13.373-9.963c-3.615-7.107-8.584-17.571-9.723-23.461-1.838-9.506-3.938-60.169-3.938-60.169l22.838-10.5,7.879,25.725s-1.31-10.5,0-16.537S327.717,227.566,327.717,227.566Z" fill="#e8505b"/><path d="M329.857,312.769a3.6,3.6,0,0,1-.037-.7c-.012-.461.006-1.139-.038-2.013a57.977,57.977,0,0,0-.7-7.356A87.686,87.686,0,0,0,326.678,292c-.564-1.986-1.211-4.056-1.907-6.195s-1.466-4.345-2.12-6.649-1.243-4.564-1.759-6.759l-.731-3.238a12.134,12.134,0,0,1-.433-3.2,7.369,7.369,0,0,1,.911-2.96c.45-.882.955-1.686,1.406-2.492.921-1.592,1.781-3.077,2.568-4.439,1.627-2.68,3.106-4.746,4.136-6.161.519-.707.932-1.246,1.219-1.608a3.582,3.582,0,0,1,.46-.534,3.568,3.568,0,0,1-.375.6l-1.139,1.663c-.977,1.449-2.406,3.54-3.987,6.236l-2.5,4.456c-.841,1.6-2.1,3.275-2.216,5.267a11.774,11.774,0,0,0,.439,3.072q.363,1.582.742,3.227c.521,2.188,1.1,4.444,1.762,6.733s1.412,4.488,2.105,6.636,1.33,4.225,1.884,6.222a82.571,82.571,0,0,1,2.311,10.769,50.8,50.8,0,0,1,.534,7.408c.013.877-.038,1.557-.06,2.018A3.531,3.531,0,0,1,329.857,312.769Z" fill="#263238"/><path d="M327.717,246.567c.148.07-1.321,3.183-2.947,7.081s-2.564,7.2-2.713,7.165a8.545,8.545,0,0,1,.45-2.214,45.392,45.392,0,0,1,1.781-5.149c.812-1.967,1.652-3.7,2.29-4.935A9.39,9.39,0,0,1,327.717,246.567Z" fill="#263238"/><path d="M322.558,331.924a24.66,24.66,0,0,0-2.416-16.617,8.065,8.065,0,0,1,1.361,2.15,19.747,19.747,0,0,1,1.748,12.019A8.039,8.039,0,0,1,322.558,331.924Z" fill="#263238"/><path d="M271.342,166.176c-.205.768-12.583,45.12-12.583,45.12v1.644l17.6,9.709,1.831-1.936,11.382-44.379-16.487-10.528Z" fill="#263238"/><path d="M191.363,262.733a3.519,3.519,0,0,1-.115.683l-.427,1.934c-.4,1.67-.9,4.107-1.487,7.121-.534,3.023-1.152,6.629-1.545,10.668a96.621,96.621,0,0,0-.548,13.169c.021,2.34.254,4.613.449,6.809q.234,1.635.459,3.211c.128,1.054.407,2.057.6,3.051q.156.744.307,1.468c.121.478.266.942.394,1.4.271.919.5,1.822.782,2.678a48.061,48.061,0,0,0,1.857,4.645q.49,1.035.934,1.974c.311.616.673,1.158.973,1.687a23.081,23.081,0,0,0,1.673,2.633l1.152,1.606a3.44,3.44,0,0,1,.375.584,3.526,3.526,0,0,1-.456-.518l-1.235-1.554a21.082,21.082,0,0,1-1.758-2.6c-.315-.525-.691-1.066-1.016-1.68l-.975-1.975a46.223,46.223,0,0,1-1.933-4.663c-.289-.86-.533-1.768-.814-2.693-.133-.465-.283-.933-.408-1.414q-.159-.729-.321-1.477c-.195-1-.482-2.012-.616-3.073q-.234-1.586-.476-3.234c-.2-2.21-.441-4.5-.463-6.854a92.728,92.728,0,0,1,.592-13.234c.421-4.053,1.078-7.665,1.66-10.687.635-3.012,1.187-5.442,1.652-7.1.216-.789.389-1.424.523-1.912A3.488,3.488,0,0,1,191.363,262.733Z" fill="#263238"/><path d="M321.716,345.959a6.65,6.65,0,0,1-1.65.164,20.091,20.091,0,0,1-4.715-.618,19.156,19.156,0,0,1-6.778-3.237,20.077,20.077,0,0,1-6.2-7.75c-1.624-3.31-3.4-6.939-5.235-10.866-.913-1.968-1.867-3.995-2.735-6.15a35.552,35.552,0,0,1-1.865-6.91q-.307-1.812-.45-3.694-.109-1.872-.223-3.785-.228-3.819-.464-7.793c-.312-5.294-.636-10.774-.967-16.388-.554-9.532-1.086-18.68-1.578-27.134l-.009-.168.152-.07L311.86,241.1l.208-.1.066.218c2.565,8.569,4.654,15.545,6.109,20.407l1.642,5.586.413,1.459c.091.331.123.5.123.5s-.07-.162-.179-.486c-.113-.35-.269-.829-.468-1.444-.408-1.3-.994-3.166-1.744-5.554-1.5-4.85-3.641-11.809-6.277-20.356l.273.123-22.818,10.542.143-.237c.5,8.455,1.042,17.6,1.607,27.137.328,5.615.648,11.1.957,16.391q.229,3.971.451,7.8.108,1.906.214,3.772c.088,1.235.236,2.455.435,3.649a35.281,35.281,0,0,0,1.819,6.823c.849,2.132,1.8,4.167,2.7,6.134,1.821,3.931,3.573,7.568,5.175,10.887a19.877,19.877,0,0,0,6.04,7.679,19.174,19.174,0,0,0,6.654,3.272,21.254,21.254,0,0,0,4.665.71,11.162,11.162,0,0,0,1.229-.028A3.528,3.528,0,0,1,321.716,345.959Z" fill="#263238"/><g opacity="0.3"><path d="M319.963,266.417c3.238,7.286,5.992,16.238,9.229,23.525,2.656,5.979,5.372,12.51,3.837,18.869-.221.914-.884,2.017-1.789,1.765-.632-.175-.888-.916-1.047-1.553-3.477-13.922-6.752-28.684-10.23-42.606"/></g><g opacity="0.3"><path d="M190.283,267.093c-3.248,7.416-7.653,14.116-8.648,22.151s.608,16.773,6.1,22.721C186.047,296.839,187.42,282.041,190.283,267.093Z"/></g><g opacity="0.3"><path d="M186.277,373.751a31.659,31.659,0,0,0,11.2,4.642c4.013.649,8.4-.074,11.512-2.691,4.393-3.7,5.256-10.014,5.815-15.727L190.935,370.2c-1.644.7-3.491,1.641-3.892,3.384"/></g><path d="M302.261,390.987a8.454,8.454,0,0,1-1.313.747c-.86.453-2.119,1.078-3.688,1.823-3.137,1.491-7.534,3.424-12.488,5.313s-9.526,3.368-12.86,4.341c-1.667.488-3.023.859-3.966,1.092a8.255,8.255,0,0,1-1.477.316,8.324,8.324,0,0,1,1.421-.51l3.913-1.25c3.3-1.061,7.839-2.6,12.784-4.476s9.349-3.758,12.52-5.161l3.753-1.67A8.463,8.463,0,0,1,302.261,390.987Z" fill="#263238"/><path d="M301.141,390.752a4.4,4.4,0,0,1,.761.333l2.127,1.052,7.738,3.948.311.158-.3.186a116.362,116.362,0,0,1-44.8,16.283l-.171.024-.017-.168c-.235-2.364-.424-4.26-.56-5.629l-.127-1.5a2.327,2.327,0,0,1-.013-.52,2.174,2.174,0,0,1,.1.51c.055.387.125.879.212,1.489.173,1.365.412,3.255.711,5.612l-.187-.144a123.745,123.745,0,0,0,44.644-16.295l.012.343-7.658-4.1-2.077-1.146A4.565,4.565,0,0,1,301.141,390.752Z" fill="#263238"/><g opacity="0.3"><path d="M268.716,412.512c7.995,2.335,16.621,3.239,24.608.9,8.13-2.381,15.45-8.567,17.606-16.76A131.633,131.633,0,0,1,268.716,412.512Z"/></g><g opacity="0.3"><path d="M268.532,412.55l.184-.038c-.145-.042-.291-.081-.435-.124Z"/></g><path d="M276.521,268.165a5.394,5.394,0,0,1-.274-.658,2.261,2.261,0,0,0-1.3-1.4,1.066,1.066,0,0,0-1.211.36,3.976,3.976,0,0,0-.575,1.6,14.256,14.256,0,0,0-.237,4.251l.114,1.218-.462-1.136a5.782,5.782,0,0,0-1.407-2.338,1.743,1.743,0,0,0-2.5.022,5.88,5.88,0,0,0-.724,3.114,10.207,10.207,0,0,0,.546,3.469l.333.975-.733-.725-2.293-2.271a15.56,15.56,0,0,0-1.18-1.115.766.766,0,0,0-1.159.082,3.452,3.452,0,0,0-.53,1.5c-.109.562-.2,1.133-.256,1.711a19.5,19.5,0,0,0-.045,3.529l0,.032.093,1.313-.585-1.176a8.415,8.415,0,0,0-1.766-2.643,2.694,2.694,0,0,0-2.709-.656,2.544,2.544,0,0,0-1.466,2.259,9.24,9.24,0,0,0,.334,2.891l-.468.139a3.8,3.8,0,0,0-2.918-2.411,3.652,3.652,0,0,0-3.306,1.242,3.5,3.5,0,0,0-.813,3.14,3.818,3.818,0,0,0,1.683,2.425l-.214.266a2.053,2.053,0,0,0-1.784-.568,2.782,2.782,0,0,0-1.573.745,3.054,3.054,0,0,0-.769,2.637,5.572,5.572,0,0,0,.943,2.256c-.007.006-.047-.032-.12-.112a3.42,3.42,0,0,1-.3-.381,4.534,4.534,0,0,1-.71-1.734,3.237,3.237,0,0,1,.765-2.859,3.043,3.043,0,0,1,1.722-.859,2.372,2.372,0,0,1,2.076.638l.862.9-1.076-.635a4.161,4.161,0,0,1-1.887-2.634,3.908,3.908,0,0,1,.87-3.51,4.088,4.088,0,0,1,3.7-1.416,4.259,4.259,0,0,1,3.306,2.707l-.469.139a9.654,9.654,0,0,1-.36-3.053,3.052,3.052,0,0,1,1.774-2.689,3.2,3.2,0,0,1,3.243.741,8.834,8.834,0,0,1,1.891,2.8l-.493.137,0-.032a19.815,19.815,0,0,1,.049-3.624c.062-.593.152-1.18.266-1.757a3.867,3.867,0,0,1,.638-1.718,1.241,1.241,0,0,1,.908-.493,1.491,1.491,0,0,1,.943.321,15.126,15.126,0,0,1,1.237,1.173l2.283,2.282-.4.25a10.64,10.64,0,0,1-.548-3.636,10.472,10.472,0,0,1,.189-1.749,3.683,3.683,0,0,1,.657-1.624,1.833,1.833,0,0,1,1.587-.689,2.639,2.639,0,0,1,1.51.631,6.075,6.075,0,0,1,1.487,2.51l-.348.083a14.236,14.236,0,0,1,.32-4.344,4.122,4.122,0,0,1,.664-1.687,1.286,1.286,0,0,1,1.461-.395,2.32,2.32,0,0,1,1.331,1.555c.076.224.121.4.149.515A.512.512,0,0,1,276.521,268.165Z" fill="#fff"/><path d="M247.808,296.217c-.019-.005.041-.216.1-.626a4.408,4.408,0,0,0-.1-1.789,2.847,2.847,0,0,0-1.833-1.981,1.914,1.914,0,0,0-1.647.207,1.75,1.75,0,0,0-.852,1.589l-.332-.008a37.978,37.978,0,0,0,.386-6.246,1.644,1.644,0,0,0-.682-1.362,1.9,1.9,0,0,0-1.6-.088,2.763,2.763,0,0,0-1.332,1.137,9.689,9.689,0,0,0-.847,1.747l-.442-.17a12.171,12.171,0,0,0,.684-3.452,11.886,11.886,0,0,0-.047-1.826,5.243,5.243,0,0,0-.411-1.759,2.323,2.323,0,0,0-3.081-.867,7.2,7.2,0,0,0-2.761,2.683l-.445-.268.5-1.019a8.566,8.566,0,0,0,.974-3.524,3.639,3.639,0,0,0-1.309-3.045,2.728,2.728,0,0,0-3.056.266,8.676,8.676,0,0,0-2.1,2.564l-.427-.227a37.638,37.638,0,0,0,2.238-6.52,8.173,8.173,0,0,0,.284-1.522.89.89,0,0,0-.661-.962,1.468,1.468,0,0,0-1.235.269,5.013,5.013,0,0,0-.949.974l-.852,1.048.533-1.239a17.239,17.239,0,0,0,1.294-4.838,17.487,17.487,0,0,0,.116-2.061,3.348,3.348,0,0,0-.24-1.645.907.907,0,0,0-1.144-.218,1.728,1.728,0,0,0-.707.665c-.284.466-.389.744-.413.732a.642.642,0,0,1,.06-.208,4.038,4.038,0,0,1,.261-.58,1.79,1.79,0,0,1,.731-.752,1.08,1.08,0,0,1,1.38.241,3.416,3.416,0,0,1,.325,1.761,17.009,17.009,0,0,1-.074,2.1,17.243,17.243,0,0,1-1.244,4.953l-.319-.19a5.285,5.285,0,0,1,1.015-1.059,1.865,1.865,0,0,1,1.566-.345,1.269,1.269,0,0,1,.739.5,1.511,1.511,0,0,1,.242.858,8.284,8.284,0,0,1-.282,1.625,37.491,37.491,0,0,1-2.221,6.616l-.427-.227a9.072,9.072,0,0,1,2.222-2.714,3.865,3.865,0,0,1,1.741-.7,2.7,2.7,0,0,1,1.9.421,4.137,4.137,0,0,1,1.538,3.47,9.067,9.067,0,0,1-1.021,3.741l-.5,1.03-.444-.268a7.636,7.636,0,0,1,2.988-2.857,3.455,3.455,0,0,1,2.1-.186,2.414,2.414,0,0,1,1.635,1.306,5.672,5.672,0,0,1,.455,1.934,12.363,12.363,0,0,1,.041,1.9,12.6,12.6,0,0,1-.73,3.587l-.443-.169a10.038,10.038,0,0,1,.9-1.826,3.211,3.211,0,0,1,1.565-1.3,2.329,2.329,0,0,1,1.982.143,2.065,2.065,0,0,1,.867,1.695,37.016,37.016,0,0,1-.468,6.328l-.216,1.411-.116-1.419a2.06,2.06,0,0,1,1.026-1.876,2.186,2.186,0,0,1,1.886-.2,3.034,3.034,0,0,1,1.929,2.184,4.217,4.217,0,0,1,.013,1.851,3.786,3.786,0,0,1-.124.461C247.838,296.169,247.816,296.22,247.808,296.217Z" fill="#fff"/><path d="M294.082,249.495c-.323-.978-.882-13.411-.882-13.411a8.349,8.349,0,0,1-4.1-5.029c-1.214-3.772-1.214-11.456-1.214-11.456s-2.235-3.073-2.375-4.051-6.845-.7-6.845-.7-4.75,4.052-6.566,3.633-1.4-2.934-1.4-2.934l5.029-5.448,5.449-1.816h7.919s1.215-2.515,0-3.493-6.731-6.286-6.731-6.286H273.5s-4.75,3.352-8.1.558v-1.955l5.308-2.934s-2.375-2.235.559-4.75a39.467,39.467,0,0,1,6.007-4.191h4.61s-5.588-3.772-5.867-4.89-2.655-4.191-.559-5.867l14.808,9.081,12.014,11.595s4.052,2.235,4.052,4.889,5.611,41.242,5.611,41.242Z" fill="#ffbe9d"/><path d="M293.49,198.332c-.076.064-.919-1.114-2.694-2.568a17.523,17.523,0,0,0-16.8-3.1c-2.178.723-3.385,1.522-3.434,1.436a3.322,3.322,0,0,1,.822-.591,14.746,14.746,0,0,1,2.49-1.193,16.915,16.915,0,0,1,17.16,3.169,14.869,14.869,0,0,1,1.9,2A3.309,3.309,0,0,1,293.49,198.332Z" fill="#eb996e"/><path d="M296.37,193.886c-.077.056-.792-.938-2.191-2.3a22.592,22.592,0,0,0-13.56-6.276c-1.945-.184-3.165-.085-3.171-.181a2.778,2.778,0,0,1,.85-.143,14.682,14.682,0,0,1,2.349-.043,19.775,19.775,0,0,1,3.457.488,20.913,20.913,0,0,1,7.728,3.576,19.643,19.643,0,0,1,2.609,2.32,14.63,14.63,0,0,1,1.488,1.818A2.782,2.782,0,0,1,296.37,193.886Z" fill="#eb996e"/><path d="M166.339,338.717,130.431,318.91l.887-4.878h62.669l69.172,41.385-2.306,4.611L206.7,361.034Z" fill="#455a64"/><path d="M165.476,335.172l1.855,7.627s5.566,5.36,6.391,7.422,5.566,6.184,5.566,6.184l1.443,7.215s3.5,5.979,8.452,7.216,11.338,0,11.338,0,12.163-8.865,14.843-9.9,29.273-3.092,29.479-3.71,1.65-3.986-1.03-3.951-14.637,1.065-14.637,1.065l6.391-6.185a8.326,8.326,0,0,0-3.711-3.5c-2.268-.825-6.6,2.473-6.6,2.473l-9.07,4.742,10.926-8.246s-.413-3.917-4.123-3.711-17.546,8.452-17.546,8.452l-3.275.413s1.443-3.917,1.855-5.36,2.886-3.093,2.886-3.093-.825-5.359-3.917-5.153a10.839,10.839,0,0,0-8.246,5.36c-1.443,2.886-2.886,6.8-2.886,6.8l-13.4-5.36S173.516,330.843,165.476,335.172Z" fill="#ffbe9d"/></g></svg>