<svg xmlns="http://www.w3.org/2000/svg" width="443.593" height="456.941" viewBox="0 0 443.593 456.941"><g transform="translate(-27.246 -21.13)"><path d="M435.772,352.167c6.682-3.447,14.55-3.9,21.968-2.67,3.985.659,8.14,1.852,10.852,4.845s3.225,8.262.112,10.834c-1.854,1.531-4.439,1.763-6.843,1.736-5.807-.068-12.25-1.09-16.889,2.4-2.647,1.993-4.409,5.307-7.574,6.287-3.1.96-6.59-.868-8.231-3.662a12.781,12.781,0,0,1-.931-9.436A14.405,14.405,0,0,1,435.772,352.167Z" fill="#ebebeb"/><path d="M420.464,322.615c4.086,5.836,12.027,3.9,15.709.342s5.238-8.724,6.655-13.647c3.236-11.249,6.5-23.048,4.093-34.5a19.176,19.176,0,0,0-4.407-9.38c-2.406-2.54-6.106-4.052-9.489-3.158-4,1.058-6.493,4.979-8.291,8.71a82.235,82.235,0,0,0-8.127,35.295c-.02,5.685.65,11.648,3.857,16.341" fill="#ebebeb"/><path d="M409.244,330.988c4.436-5.265,5.278-12.944,3.3-19.539s-6.434-12.207-11.573-16.788a62.31,62.31,0,0,0-20.724-12.228,22.087,22.087,0,0,0-9.32-1.583c-3.163.3-6.347,1.918-7.822,4.732-2.181,4.16-.09,9.2,2.172,13.321a157.76,157.76,0,0,0,13.612,20.728c4.079,5.26,8.753,10.448,14.971,12.826s12.677,2.1,15.972-2.215" fill="#ebebeb"/><path d="M420.187,410.642a12.63,12.63,0,0,0,.37-2.651c.188-1.93.424-4.353.7-7.237a104.458,104.458,0,0,1,1.628-10.614,81.911,81.911,0,0,1,3.858-12.528,46.179,46.179,0,0,1,6.4-11.335,23.9,23.9,0,0,1,8.088-6.724,22.618,22.618,0,0,1,6.811-2.121,12.788,12.788,0,0,0,2.64-.382,12.388,12.388,0,0,0-2.687-.042,20.645,20.645,0,0,0-7.1,1.848,23.858,23.858,0,0,0-8.531,6.783,45.106,45.106,0,0,0-6.631,11.563,76.487,76.487,0,0,0-3.83,12.733,89.653,89.653,0,0,0-1.412,10.749c-.229,3.073-.316,5.561-.358,7.281A12.452,12.452,0,0,0,420.187,410.642Z" fill="#e0e0e0"/><path d="M420.686,405.075a5.244,5.244,0,0,0,.071-1.231c0-.925,0-2.089-.009-3.519-.009-3.053-.007-7.472.157-12.928.27-10.913,1.209-22.658,3.024-39.216,1.719-15.57,4.026-33.69,6.46-45.471.522-2.68,1.048-5.091,1.543-7.2.472-2.116.875-3.94,1.263-5.416.335-1.39.606-2.522.823-3.42a5.284,5.284,0,0,0,.215-1.214,5.148,5.148,0,0,0-.428,1.153l-1.021,3.372c-.453,1.462-.918,3.275-1.448,5.382-.552,2.1-1.132,4.508-1.7,7.184a399.051,399.051,0,0,0-6.791,42.192c-1.819,16.593-2.638,31.7-2.71,42.641-.065,5.47.051,9.9.191,12.954.087,1.429.158,2.593.215,3.516A5.2,5.2,0,0,0,420.686,405.075Z" fill="#e0e0e0"/><path d="M420.759,375.935a23.354,23.354,0,0,0-.026-3.676c-.135-2.361-.46-5.775-1.125-9.957a131.222,131.222,0,0,0-3.239-14.508,118.657,118.657,0,0,0-6.067-17.167c-5.032-11.938-11.868-21.7-17.816-27.743a45.366,45.366,0,0,0-4.191-3.9c-.643-.543-1.212-1.085-1.791-1.515l-1.626-1.121a23.341,23.341,0,0,0-3.094-1.981c-.176.239,4.384,2.922,10.142,9.048A96.352,96.352,0,0,1,409.3,331.061a135.823,135.823,0,0,1,6.1,17.01,147.461,147.461,0,0,1,3.446,14.363c.759,4.14,1.2,7.52,1.464,9.86A23.706,23.706,0,0,0,420.759,375.935Z" fill="#e0e0e0"/><path d="M392.594,427.337l2.92,40H446.9l2.92-40Z" fill="#e0e0e0"/><rect width="68.325" height="15.767" transform="translate(387.631 411.57)" fill="#e0e0e0"/><path d="M387.631,465.809v4.371h67.2v-4.371Z" fill="#ebebeb"/><path d="M393.988,477.871l-3.147-7.692h61.538l-3.671,7.692Z" fill="#e0e0e0"/><path d="M448.87,440.411a1.694,1.694,0,0,1-.24.367l-.768,1.019-2.993,3.831-.133.17-.129-.178-7.355-10.172h.423c-2.188,3.1-4.625,6.548-7.241,10.253l-.227.321-.254-.3c-2.673-3.179-5.575-6.633-8.588-10.218l.495-.006-.472.594-7.679,9.626-.256.321-.237-.334c-2.606-3.689-5.042-7.135-7.244-10.251l.421.02-8.922,10.166-.159.181-.12-.2c-1.177-1.975-2.114-3.551-2.794-4.693-.292-.509-.529-.921-.717-1.25a.25.25,0,1,1,.08-.049l.794,1.2c.713,1.122,1.7,2.669,2.932,4.608l-.279-.022,8.779-10.29.222-.259.2.279,7.31,10.205-.492-.014,7.66-9.641.473-.593.244-.307.251.3c3,3.591,5.9,7.051,8.564,10.237l-.481.019,7.313-10.2.215-.3.209.3,7.2,10.282-.261-.008,3.114-3.733c.338-.392.613-.709.834-.966C448.753,440.507,448.858,440.4,448.87,440.411Z" fill="#f5f5f5"/><path d="M450.539,427.073c0,.177-12.877.32-28.757.32s-28.76-.143-28.76-.32,12.874-.32,28.76-.32S450.539,426.9,450.539,427.073Z" fill="#f5f5f5"/><path d="M453.135,470.61c0,.177-13.994.32-31.253.32s-31.256-.143-31.256-.32,13.991-.32,31.256-.32S453.135,470.434,453.135,470.61Z" fill="#f5f5f5"/><rect width="124.618" height="129.904" transform="translate(343.224 59.628)" fill="#e0e0e0"/><rect width="124.618" height="129.904" transform="translate(334.785 59.628)" fill="#fafafa"/><path d="M459.441,189.571h-124.7V59.589h124.7Zm-124.618-.078H459.364V59.667H334.823Z" fill="#e0e0e0"/><rect width="91.114" height="94.978" transform="translate(351.536 77.091)" fill="#fafafa"/><path d="M351.536,172.7a14.889,14.889,0,0,1-2.248,2.614c-1.455,1.535-3.5,3.614-5.792,5.871s-4.4,4.27-5.952,5.7a14.478,14.478,0,0,1-2.634,2.193,14.6,14.6,0,0,1,2.237-2.6c1.455-1.535,3.505-3.619,5.8-5.883s4.409-4.28,5.963-5.708A14.235,14.235,0,0,1,351.536,172.7Z" fill="#e0e0e0"/><path d="M442.65,172.468a14.87,14.87,0,0,1,2.615,2.248c1.535,1.455,3.613,3.5,5.871,5.792s4.27,4.4,5.7,5.952a14.538,14.538,0,0,1,2.193,2.633,14.505,14.505,0,0,1-2.6-2.236c-1.535-1.455-3.619-3.506-5.883-5.8s-4.28-4.41-5.708-5.963A14.328,14.328,0,0,1,442.65,172.468Z" fill="#e0e0e0"/><path d="M442.4,77.344a14.873,14.873,0,0,1,2.249-2.614c1.455-1.536,3.5-3.614,5.792-5.871s4.4-4.27,5.952-5.7a14.4,14.4,0,0,1,2.633-2.193,14.559,14.559,0,0,1-2.236,2.6c-1.455,1.535-3.506,3.618-5.8,5.883s-4.41,4.28-5.964,5.708A14.211,14.211,0,0,1,442.4,77.344Z" fill="#e0e0e0"/><path d="M351.287,77.577a14.891,14.891,0,0,1-2.614-2.248c-1.536-1.455-3.614-3.5-5.872-5.792s-4.27-4.4-5.7-5.952a14.481,14.481,0,0,1-2.193-2.633,14.454,14.454,0,0,1,2.6,2.236c1.535,1.454,3.618,3.505,5.883,5.8s4.28,4.411,5.708,5.964A14.248,14.248,0,0,1,351.287,77.577Z" fill="#e0e0e0"/><path d="M442.4,172.069a4.33,4.33,0,0,1-.02-.461c-.005-.324-.011-.761-.02-1.326-.01-1.191-.023-2.9-.041-5.127-.021-4.5-.052-11.045-.092-19.357-.043-16.635-.1-40.333-.178-68.707l.351.351-90.855.052h-.009l.4-.4c-.021,34.861-.041,67.474-.057,94.978l-.346-.346,65.791.177,18.481.09,4.889.04,1.263.02a4.142,4.142,0,0,1,.44.019,3.042,3.042,0,0,1-.4.02l-1.226.019-4.824.04-18.4.091-66.012.177h-.346v-.348c-.016-27.5-.036-60.117-.057-94.978v-.4h.413l90.855.051h.353v.352c-.074,28.467-.136,52.243-.179,68.932-.04,8.277-.071,14.8-.092,19.277-.018,2.195-.031,3.885-.041,5.06-.009.549-.015.973-.02,1.287A3.119,3.119,0,0,1,442.4,172.069Z" fill="#e0e0e0"/><rect width="30.403" height="30.403" transform="translate(381.892 109.378)" fill="#ebebeb"/><rect width="234.854" height="7.436" transform="translate(27.246 174.54)" fill="#e0e0e0"/><rect width="11.892" height="23.55" transform="translate(66.906 178.258)" fill="#e0e0e0"/><rect width="11.891" height="27.268" transform="translate(207.908 174.54)" fill="#e0e0e0"/><path d="M61.522,124.58l7.689,50.527h44.668l10.368-49.8Z" fill="#ebebeb"/><path d="M118,156.962c0,.145-11.446.262-25.562.262s-25.564-.117-25.564-.262,11.443-.262,25.564-.262S118,156.818,118,156.962Z" fill="#fafafa"/><path d="M118.174,154.477c0,.145-11.524.263-25.735.263s-25.738-.118-25.738-.263,11.521-.262,25.738-.262S118.174,154.333,118.174,154.477Z" fill="#fafafa"/><path d="M118.086,151.671c0,.145-11.524.262-25.735.262s-25.738-.117-25.738-.262,11.521-.262,25.738-.262S118.086,151.526,118.086,151.671Z" fill="#fafafa"/><path d="M74.341,172.224a40.681,40.681,0,0,1-1.37-6.362,40.476,40.476,0,0,1-.853-6.452,40.542,40.542,0,0,1,1.37,6.363A40.444,40.444,0,0,1,74.341,172.224Z" fill="#fafafa"/><path d="M77.38,171.687a49.291,49.291,0,0,1-.554-6.207,49.293,49.293,0,0,1-.291-6.226,30.055,30.055,0,0,1,.814,6.191A30.016,30.016,0,0,1,77.38,171.687Z" fill="#fafafa"/><path d="M82.918,171.685a31.14,31.14,0,0,1-1.162-6.364,31.115,31.115,0,0,1-.34-6.462,56.092,56.092,0,0,1,.861,6.4A55.842,55.842,0,0,1,82.918,171.685Z" fill="#fafafa"/><path d="M86.806,171.951a31.773,31.773,0,0,1-.619-6.466,31.678,31.678,0,0,1,.2-6.494,55.345,55.345,0,0,1,.326,6.477A55.5,55.5,0,0,1,86.806,171.951Z" fill="#fafafa"/><path d="M93.688,171.687a36.4,36.4,0,0,1-.47-6.137,36.377,36.377,0,0,1,.054-6.156,36.154,36.154,0,0,1,.47,6.138A36.244,36.244,0,0,1,93.688,171.687Z" fill="#fafafa"/><path d="M98.715,171.953a38.725,38.725,0,0,1-.21-6.349,38.551,38.551,0,0,1,.314-6.346,38.742,38.742,0,0,1,.21,6.35A38.675,38.675,0,0,1,98.715,171.953Z" fill="#fafafa"/><path d="M103.429,171.278a42.3,42.3,0,0,1,.38-6.635,42.386,42.386,0,0,1,.9-6.586,42.389,42.389,0,0,1-.381,6.636A42.294,42.294,0,0,1,103.429,171.278Z" fill="#fafafa"/><path d="M109.506,170.616a22.453,22.453,0,0,1,.752-5.643,22.488,22.488,0,0,1,1.66-5.445,49.864,49.864,0,0,1-1.148,5.557A50.145,50.145,0,0,1,109.506,170.616Z" fill="#fafafa"/><path d="M105.2,24.88a.907.907,0,0,1-.054.249c-.056.191-.124.425-.209.714-.206.664-.49,1.575-.849,2.727-.383,1.179-.838,2.626-1.312,4.323s-1.078,3.608-1.61,5.76c-.567,2.143-1.182,4.491-1.741,7.036-.62,2.532-1.141,5.267-1.723,8.138-1.07,5.759-2.047,12.129-2.736,18.855-.654,6.731-.956,13.17-1.044,19.028,0,2.929-.027,5.714.08,8.318.046,2.606.184,5.029.316,7.241.1,2.215.3,4.21.441,5.965s.289,3.265.431,4.5c.125,1.2.222,2.149.294,2.841.025.3.047.543.063.74a.9.9,0,0,1,0,.255.917.917,0,0,1-.057-.248c-.031-.2-.068-.437-.115-.734q-.143-1.033-.391-2.831c-.174-1.229-.365-2.735-.521-4.492s-.4-3.751-.519-5.968c-.156-2.215-.316-4.642-.38-7.252-.127-2.61-.114-5.4-.13-8.336.063-5.872.35-12.328,1.006-19.077.691-6.742,1.685-13.126,2.784-18.894.6-2.874,1.134-5.613,1.774-8.145.579-2.546,1.215-4.893,1.806-7.034.556-2.149,1.179-4.059,1.688-5.748s.985-3.13,1.4-4.3c.4-1.14.714-2.042.943-2.7.1-.282.19-.511.258-.7A.909.909,0,0,1,105.2,24.88Z" fill="#ebebeb"/><path d="M97.142,56.166a16.589,16.589,0,0,1,6.944-8.771c1.107-.684,2.5-1.241,3.674-.675,1.559.753,1.684,2.946,1.219,4.613a12.214,12.214,0,0,1-5.055,6.891,10.31,10.31,0,0,1-7.586,1.913" fill="#ebebeb"/><path d="M94.429,77.292c1.154-4.36,4.632-10.56,8.245-13.259a5.315,5.315,0,0,1,1.875-1,2.182,2.182,0,0,1,2,.433,3.079,3.079,0,0,1,.448,2.9,17.583,17.583,0,0,1-13.033,13.12" fill="#ebebeb"/><path d="M93.681,95.888A25.519,25.519,0,0,1,102,85.428a3.972,3.972,0,0,1,2.9-1.035c1.579.287,2.295,2.214,2.155,3.812-.287,3.289-2.8,5.926-5.392,7.97a33.427,33.427,0,0,1-7.695,3.954" fill="#ebebeb"/><path d="M94.1,109.256a24.553,24.553,0,0,1,7.077-8.058,5.116,5.116,0,0,1,2.124-.951,2.163,2.163,0,0,1,2.083.792c.709,1.042.033,2.451-.727,3.457a20.179,20.179,0,0,1-10.1,7.408" fill="#ebebeb"/><path d="M93.751,103.826A79.005,79.005,0,0,0,83.63,93.516c-.575-.486-1.3-1-2.017-.763a1.51,1.51,0,0,0-.928,1.361A3.824,3.824,0,0,0,81.07,95.8,19.619,19.619,0,0,0,94.1,106.766" fill="#ebebeb"/><path d="M94.074,86.429q-3.977-4.845-7.952-9.693a9.582,9.582,0,0,0-2.579-2.447,3.264,3.264,0,0,0-3.392-.041,3.216,3.216,0,0,0-1.088,3.2,8.418,8.418,0,0,0,1.551,3.185,23.591,23.591,0,0,0,5.794,6.154c2.334,1.607,4.456,2.651,7.259,2.237" fill="#ebebeb"/><path d="M95.179,66.844a27.711,27.711,0,0,0-8-12.011,4.657,4.657,0,0,0-2.085-1.216c-1.593-.309-3.131,1.022-3.647,2.561a6.568,6.568,0,0,0,.726,5.263,13.885,13.885,0,0,0,3.738,3.952,32.06,32.06,0,0,0,8.844,4.775" fill="#ebebeb"/><path d="M98.356,49.381c-.771-5.619-3.695-10.3-7.085-14.842-.714-.958-1.711-1.976-2.892-1.8a2.294,2.294,0,0,0-1.661,1.424,5.364,5.364,0,0,0-.314,2.246A17.357,17.357,0,0,0,97.668,51.921" fill="#ebebeb"/><path d="M100.581,40.464a46.431,46.431,0,0,1-.291-8.688,15.546,15.546,0,0,1,2.885-8.093,6.688,6.688,0,0,1,2.886-2.3,3.65,3.65,0,0,1,3.542.47,3.855,3.855,0,0,1,1.213,3.119,9.806,9.806,0,0,1-.9,3.328c-2.118,5.1-5.651,10.74-9.339,12.166" fill="#ebebeb"/><path d="M65.944,47.16a3.626,3.626,0,0,1,.044.712c0,.519.013,1.2.022,2.04,0,.885,0,1.968.05,3.224s.05,2.688.155,4.267c.138,3.161.444,6.917.923,11.07.515,4.15,1.222,8.694,2.2,13.419,1,4.722,2.182,9.169,3.378,13.175,1.23,4,2.459,7.56,3.6,10.51.538,1.488,1.106,2.8,1.573,3.969s.892,2.163,1.25,2.973l.8,1.876a3.512,3.512,0,0,1,.246.67,3.716,3.716,0,0,1-.342-.625l-.889-1.838c-.386-.8-.845-1.781-1.333-2.942s-1.086-2.466-1.649-3.949c-1.19-2.939-2.459-6.5-3.719-10.5C71.029,91.2,69.832,86.738,68.825,82c-.981-4.742-1.677-9.305-2.166-13.471-.455-4.17-.724-7.94-.815-11.11-.08-1.584-.063-3.02-.077-4.279s.006-2.344.039-3.23c.031-.844.057-1.521.076-2.04A3.62,3.62,0,0,1,65.944,47.16Z" fill="#e0e0e0"/><path d="M67.189,70.2a11.846,11.846,0,0,1,2.84-7.467,2.841,2.841,0,0,1,2.356-1.25c1.224.178,1.781,1.643,1.824,2.879a8.727,8.727,0,0,1-1.959,5.779A7.363,7.363,0,0,1,67.5,73.073" fill="#e0e0e0"/><path d="M69.889,85.163c-.153-3.217.881-8.187,2.76-10.8a3.78,3.78,0,0,1,1.062-1.083,1.554,1.554,0,0,1,1.458-.137,2.2,2.2,0,0,1,.928,1.874,12.556,12.556,0,0,1-6.049,11.738" fill="#e0e0e0"/><path d="M73.383,97.985a18.225,18.225,0,0,1,3.411-8.912,2.84,2.84,0,0,1,1.754-1.329c1.136-.145,2.039,1.013,2.287,2.131.513,2.3-.63,4.637-1.956,6.587a23.831,23.831,0,0,1-4.387,4.348" fill="#e0e0e0"/><path d="M76.546,107a17.551,17.551,0,0,1,3.084-7.01,3.652,3.652,0,0,1,1.241-1.1,1.548,1.548,0,0,1,1.59.09c.706.558.55,1.662.248,2.511a14.4,14.4,0,0,1-5.281,7.217" fill="#e0e0e0"/><path d="M75.139,103.375a56.282,56.282,0,0,0-9.11-4.841,1.625,1.625,0,0,0-1.537-.086,1.078,1.078,0,0,0-.339,1.126,2.734,2.734,0,0,0,.626,1.068A14.009,14.009,0,0,0,76.01,105.3" fill="#e0e0e0"/><path d="M71.614,91.461l-7.5-4.888a6.831,6.831,0,0,0-2.283-1.111,2.331,2.331,0,0,0-2.318.7,2.3,2.3,0,0,0-.052,2.413A6.02,6.02,0,0,0,61.2,90.412a16.845,16.845,0,0,0,5.27,2.943c1.934.591,3.6.845,5.423-.039" fill="#e0e0e0"/><path d="M68.152,77.888a19.814,19.814,0,0,0-8.033-6.456,3.342,3.342,0,0,0-1.682-.379,2.5,2.5,0,0,0-1.932,2.529,4.692,4.692,0,0,0,1.628,3.427,9.9,9.9,0,0,0,3.4,1.887,22.926,22.926,0,0,0,7.05,1.347" fill="#e0e0e0"/><path d="M66.555,65.315c-1.734-3.66-4.732-6.214-8.018-8.581a2.433,2.433,0,0,0-2.356-.6,1.635,1.635,0,0,0-.823,1.327,3.8,3.8,0,0,0,.269,1.6,12.393,12.393,0,0,0,11.007,8.133" fill="#e0e0e0"/><path d="M66.151,58.765a33,33,0,0,1-2.068-5.853,11.093,11.093,0,0,1,.222-6.13,4.769,4.769,0,0,1,1.469-2.189,2.608,2.608,0,0,1,2.513-.443,2.756,2.756,0,0,1,1.5,1.863,7,7,0,0,1,.107,2.459C69.546,52.4,68.355,57,66.151,58.765" fill="#e0e0e0"/><path d="M122.419,46.67a3.621,3.621,0,0,1,.062.71c.019.519.045,1.2.076,2.04.033.886.058,1.97.039,3.23s0,2.695-.077,4.279c-.091,3.17-.36,6.941-.815,11.11-.489,4.166-1.185,8.729-2.166,13.471-1.007,4.738-2.2,9.2-3.429,13.209-1.26,4-2.528,7.563-3.719,10.5-.563,1.483-1.155,2.791-1.649,3.949s-.947,2.145-1.333,2.942l-.889,1.838a3.716,3.716,0,0,1-.342.625,3.605,3.605,0,0,1,.246-.67l.8-1.876c.358-.81.788-1.8,1.25-2.973s1.035-2.481,1.573-3.969c1.144-2.95,2.373-6.513,3.6-10.51,1.2-4.006,2.374-8.453,3.378-13.175.978-4.725,1.685-9.269,2.2-13.419.479-4.153.785-7.909.923-11.07.1-1.579.114-3.01.154-4.267s.053-2.339.051-3.224c.009-.844.017-1.521.022-2.04A3.626,3.626,0,0,1,122.419,46.67Z" fill="#ebebeb"/><path d="M121.174,69.706a11.846,11.846,0,0,0-2.84-7.467,2.838,2.838,0,0,0-2.356-1.25c-1.223.177-1.781,1.643-1.823,2.878a8.721,8.721,0,0,0,1.958,5.78,7.366,7.366,0,0,0,4.753,2.936" fill="#ebebeb"/><path d="M118.474,84.673c.153-3.217-.881-8.187-2.76-10.8a3.789,3.789,0,0,0-1.061-1.083,1.556,1.556,0,0,0-1.459-.137,2.2,2.2,0,0,0-.928,1.874,12.556,12.556,0,0,0,6.049,11.738" fill="#ebebeb"/><path d="M114.98,97.5a18.216,18.216,0,0,0-3.412-8.912,2.835,2.835,0,0,0-1.753-1.329c-1.136-.145-2.039,1.013-2.287,2.131-.513,2.3.63,4.638,1.956,6.587a23.831,23.831,0,0,0,4.387,4.348" fill="#ebebeb"/><path d="M111.817,106.506a17.54,17.54,0,0,0-3.084-7.009,3.645,3.645,0,0,0-1.241-1.105,1.546,1.546,0,0,0-1.59.091c-.707.557-.55,1.661-.248,2.51a14.4,14.4,0,0,0,5.281,7.217" fill="#ebebeb"/><path d="M113.224,102.885a56.282,56.282,0,0,1,9.11-4.841,1.625,1.625,0,0,1,1.537-.086,1.077,1.077,0,0,1,.339,1.126,2.734,2.734,0,0,1-.626,1.068,14.009,14.009,0,0,1-11.231,4.659" fill="#ebebeb"/><path d="M116.749,90.971l7.5-4.888a6.843,6.843,0,0,1,2.283-1.112,2.331,2.331,0,0,1,2.317.7,2.294,2.294,0,0,1,.053,2.413,6,6,0,0,1-1.742,1.835,16.865,16.865,0,0,1-5.27,2.943c-1.934.591-3.6.845-5.423-.039" fill="#ebebeb"/><path d="M120.211,77.4a19.8,19.8,0,0,1,8.033-6.455,3.343,3.343,0,0,1,1.682-.38,2.5,2.5,0,0,1,1.932,2.529,4.692,4.692,0,0,1-1.628,3.427,9.9,9.9,0,0,1-3.395,1.886,22.9,22.9,0,0,1-7.049,1.348" fill="#ebebeb"/><path d="M121.808,64.825c1.734-3.66,4.732-6.214,8.018-8.58a2.431,2.431,0,0,1,2.356-.6,1.638,1.638,0,0,1,.824,1.327,3.821,3.821,0,0,1-.27,1.6A12.4,12.4,0,0,1,121.729,66.7" fill="#ebebeb"/><path d="M122.212,58.275a33,33,0,0,0,2.068-5.853,11.1,11.1,0,0,0-.222-6.131,4.771,4.771,0,0,0-1.469-2.188,2.608,2.608,0,0,0-2.513-.443,2.756,2.756,0,0,0-1.5,1.863,7,7,0,0,0-.107,2.459c.345,3.925,1.536,8.528,3.74,10.293" fill="#ebebeb"/><path d="M56.4,114.575v9.454a3.722,3.722,0,0,0,3.722,3.723H124.8a3.722,3.722,0,0,0,3.722-3.723v-9.454Z" fill="#ebebeb"/><path d="M62,127.752l.537,3.01,59.685,4.253,1.512-7.263Z" fill="#e0e0e0"/><path d="M157.687,107.836S146.965,116,157.238,126.8a.933.933,0,0,0,.679.287l93.679-.546s8-8.973,1.362-19.312Z" fill="#ebebeb"/><path d="M230.892,116.362c0,.1-11.665.189-26.051.189s-26.055-.085-26.055-.189,11.663-.189,26.055-.189S230.892,116.258,230.892,116.362Z" fill="#e0e0e0"/><path d="M216.321,119.751c0,.1-5.484.189-12.248.189s-12.249-.085-12.249-.189,5.483-.189,12.249-.189S216.321,119.646,216.321,119.751Z" fill="#e0e0e0"/><path d="M240.471,126.238c-.061-.016.206-1.076.5-2.811a38.82,38.82,0,0,0-.129-13.659c-.323-1.729-.61-2.784-.55-2.8a2.963,2.963,0,0,1,.273.721c.156.47.343,1.162.539,2.026a33.2,33.2,0,0,1,.13,13.762c-.18.867-.354,1.563-.5,2.036A3.045,3.045,0,0,1,240.471,126.238Z" fill="#e0e0e0"/><path d="M247.462,107.109a3.235,3.235,0,0,1,.417.681,7.886,7.886,0,0,1,.417.839c.146.334.33.709.478,1.146a19.851,19.851,0,0,1,.891,3.108,20.889,20.889,0,0,1,.064,7.891,19.874,19.874,0,0,1-.842,3.122c-.14.439-.318.817-.459,1.154a7.887,7.887,0,0,1-.4.846,3.158,3.158,0,0,1-.406.687c-.065-.032.457-1.041,1.015-2.772a22.66,22.66,0,0,0,.752-3.1,22.3,22.3,0,0,0-.063-7.765,22.61,22.61,0,0,0-.8-3.084C247.936,108.142,247.4,107.142,247.462,107.109Z" fill="#e0e0e0"/><path d="M172.468,126.363a2.936,2.936,0,0,1-.436-.626,6.771,6.771,0,0,1-.438-.782,10.9,10.9,0,0,1-.5-1.077,16.372,16.372,0,0,1-.914-2.955,17.381,17.381,0,0,1,.1-7.537,16.453,16.453,0,0,1,.993-2.93,11.223,11.223,0,0,1,.529-1.064,6.66,6.66,0,0,1,.459-.769,2.921,2.921,0,0,1,.453-.614c.064.039-.539.945-1.195,2.552a18.256,18.256,0,0,0-.9,2.9,18.331,18.331,0,0,0-.1,7.392,18.25,18.25,0,0,0,.821,2.925C171.955,125.4,172.533,126.325,172.468,126.363Z" fill="#e0e0e0"/><path d="M162.353,128.648a3.706,3.706,0,0,1-.481-.71,8.023,8.023,0,0,1-.49-.88c-.172-.352-.39-.745-.566-1.208a19.979,19.979,0,0,1-1.073-3.307,20.923,20.923,0,0,1-.187-8.473,19.911,19.911,0,0,1,.924-3.352c.156-.47.356-.872.513-1.232a8.061,8.061,0,0,1,.45-.9,3.722,3.722,0,0,1,.449-.731c.068.035-.531,1.1-1.159,2.953a22.1,22.1,0,0,0-.834,3.322,22.066,22.066,0,0,0,.185,8.338,22,22,0,0,0,.98,3.281C161.773,127.572,162.419,128.61,162.353,128.648Z" fill="#e0e0e0"/><path d="M248.16,155.068v17.927H213.471V155.068Z" fill="#ebebeb"/><path d="M136.128,164.2c.006.158.013.316.021.475a10.271,10.271,0,0,0,10.319,9.619H249.777v-1.3H225.252a8.963,8.963,0,0,1-8.963-8.963h0a8.963,8.963,0,0,1,8.963-8.964h24.525v-1.9l-103.34.349A10.336,10.336,0,0,0,136.128,164.2Z" fill="#e0e0e0"/><path d="M248.16,164.271c0,.1-7.132.189-15.929.189s-15.93-.085-15.93-.189,7.131-.189,15.93-.189S248.16,164.167,248.16,164.271Z" fill="#e0e0e0"/><path d="M247.658,168.311c0,.1-6.749.189-15.072.189s-15.074-.085-15.074-.189,6.747-.19,15.074-.19S247.658,168.206,247.658,168.311Z" fill="#e0e0e0"/><path d="M248.16,172.005c0,.1-6.068.189-13.551.189s-13.553-.085-13.553-.189,6.067-.189,13.553-.189S248.16,171.9,248.16,172.005Z" fill="#e0e0e0"/><path d="M248.16,160.642c0,.1-6.986.189-15.6.189s-15.6-.085-15.6-.189,6.985-.19,15.6-.19S248.16,160.537,248.16,160.642Z" fill="#e0e0e0"/><path d="M247.658,157.012c0,.105-6.219.189-13.888.189s-13.889-.084-13.889-.189,6.217-.189,13.889-.189S247.658,156.908,247.658,157.012Z" fill="#e0e0e0"/><path d="M148.645,153.813a22.749,22.749,0,0,0-2.2,2.61,13.279,13.279,0,0,0,.181,15.363,23.047,23.047,0,0,0,2.256,2.557,3.625,3.625,0,0,1-.746-.55,11.859,11.859,0,0,1-1.725-1.849,13.076,13.076,0,0,1-.186-15.674,11.785,11.785,0,0,1,1.682-1.889A3.566,3.566,0,0,1,148.645,153.813Z" fill="#f5f5f5"/><path d="M145.151,153.43a23.143,23.143,0,0,0-2.194,2.611,13.273,13.273,0,0,0,.181,15.362,23.051,23.051,0,0,0,2.256,2.557,3.594,3.594,0,0,1-.746-.55,11.858,11.858,0,0,1-1.726-1.849,13.078,13.078,0,0,1-.185-15.674A11.875,11.875,0,0,1,144.419,154,3.714,3.714,0,0,1,145.151,153.43Z" fill="#f5f5f5"/><path d="M215.348,153.813a22.875,22.875,0,0,0-2.2,2.61,13.277,13.277,0,0,0,.182,15.363,22.989,22.989,0,0,0,2.255,2.557,3.607,3.607,0,0,1-.745-.55,11.809,11.809,0,0,1-1.726-1.849,13.078,13.078,0,0,1-.185-15.674,11.837,11.837,0,0,1,1.681-1.889A3.566,3.566,0,0,1,215.348,153.813Z" fill="#f5f5f5"/><path d="M211.855,153.43a22.946,22.946,0,0,0-2.195,2.611,13.277,13.277,0,0,0,.181,15.362,23.049,23.049,0,0,0,2.256,2.557,3.594,3.594,0,0,1-.746-.55,11.812,11.812,0,0,1-1.725-1.849,13.076,13.076,0,0,1-.186-15.674A11.876,11.876,0,0,1,211.122,154,3.665,3.665,0,0,1,211.855,153.43Z" fill="#f5f5f5"/><path d="M160.4,166.718q-.049-3.645-.1-7.289a5.2,5.2,0,0,0-.256-1.878,1.768,1.768,0,0,0-1.384-1.168c-.913-.4-2.336.357-2.973,1.409a6.91,6.91,0,0,0-.717,3.572,51.744,51.744,0,0,0,.28,5.758,6.628,6.628,0,0,0,.678,2.636,2.459,2.459,0,0,0,2.224,1.337A2.487,2.487,0,0,0,160.1,169.4,7.322,7.322,0,0,0,160.4,166.718Z" fill="#f5f5f5"/><path d="M200.525,164.622c0,.1-7.469.189-16.68.189s-16.681-.085-16.681-.189,7.467-.19,16.681-.19S200.525,164.517,200.525,164.622Z" fill="#f5f5f5"/><path d="M153.481,153.1,153.29,136.1h9.25l.319,16.992Z" fill="#f5f5f5"/><path d="M161.994,139.127a24.535,24.535,0,0,1-4.3.189,24.533,24.533,0,0,1-4.3-.189,24.649,24.649,0,0,1,4.3-.189A24.652,24.652,0,0,1,161.994,139.127Z" fill="#e0e0e0"/><path d="M161.994,141.75a24.652,24.652,0,0,1-4.3.189,24.649,24.649,0,0,1-4.3-.189,24.533,24.533,0,0,1,4.3-.189A24.535,24.535,0,0,1,161.994,141.75Z" fill="#e0e0e0"/><path d="M161.994,144.372a24.47,24.47,0,0,1-4.3.19,24.468,24.468,0,0,1-4.3-.19,24.651,24.651,0,0,1,4.3-.189A24.653,24.653,0,0,1,161.994,144.372Z" fill="#e0e0e0"/><path d="M161.994,146.995a24.533,24.533,0,0,1-4.3.189,24.53,24.53,0,0,1-4.3-.189,24.651,24.651,0,0,1,4.3-.189A24.653,24.653,0,0,1,161.994,146.995Z" fill="#e0e0e0"/><path d="M161.994,149.618a24.651,24.651,0,0,1-4.3.189,24.648,24.648,0,0,1-4.3-.189,24.533,24.533,0,0,1,4.3-.189A24.535,24.535,0,0,1,161.994,149.618Z" fill="#e0e0e0"/><path d="M152.8,135.654H255.317c1.265,5.627,1.087,11.819,0,18.367H153.236v-1.25h6.238a2.945,2.945,0,0,0,2.946-2.945V139.662a2.946,2.946,0,0,0-2.946-2.946H152.8Z" fill="#ebebeb"/><path d="M177.035,144.848h1.711a.4.4,0,0,1,.184.046.351.351,0,0,1,.184.323.363.363,0,0,1-.014.11c-.033.144-.072.29-.115.437a4.88,4.88,0,0,1-1.071,1.936,2.024,2.024,0,0,1-1.458.754,1.46,1.46,0,0,1-.207-.014,1.662,1.662,0,0,1-1.163-.842,3.834,3.834,0,0,1-.511-2.059,5.5,5.5,0,0,1,.2-1.467,4.911,4.911,0,0,1,1.016-1.983,2.065,2.065,0,0,1,1.541-.819,1.451,1.451,0,0,1,.647.148,2.1,2.1,0,0,1,1,1.249.383.383,0,0,1,.041.17.36.36,0,0,1-.051.184.349.349,0,0,1-.317.183.4.4,0,0,1-.115-.018.348.348,0,0,1-.235-.23l-.018-.033a1.811,1.811,0,0,0-.206-.4.977.977,0,0,0-.819-.488.967.967,0,0,0-.566.206,3.032,3.032,0,0,0-.933,1.342,5.047,5.047,0,0,0-.4,1.93,3.463,3.463,0,0,0,.294,1.516,1,1,0,0,0,.892.671,1.226,1.226,0,0,0,.828-.5,4.559,4.559,0,0,0,.878-1.589c-.787,0-1.2,0-1.227-.014-.267-.042-.4-.181-.41-.413a.38.38,0,0,1,.423-.332Z" fill="#fafafa"/><path d="M182.856,141.51a1.251,1.251,0,0,1,.046.124q.108.376,1.207,6.352a.272.272,0,0,1,.017.092.383.383,0,0,1-.051.188.336.336,0,0,1-.3.188c-.018,0-.038,0-.059,0a.335.335,0,0,1-.283-.254l-.408-2.11h-2.106L179.9,148.2a.447.447,0,0,1-.034.07.408.408,0,0,1-.317.18.361.361,0,0,1-.2-.06.355.355,0,0,1-.168-.308.293.293,0,0,1,.023-.11q.095-.222.314-.7,2.209-4.827,2.643-5.7a.4.4,0,0,1,.356-.257A.386.386,0,0,1,182.856,141.51Zm-.459,1.42-1.14,2.4h1.609Z" fill="#fafafa"/><path d="M188.573,148.454h-3.089a.354.354,0,0,1-.2-.06.557.557,0,0,1-.175-.386v0q0-.187.853-6.325a.97.97,0,0,1,.018-.136.339.339,0,0,1,.333-.225.365.365,0,0,1,.17.041.342.342,0,0,1,.193.327q-.039.417-.21,1.734-.529,4.05-.553,4.276h2.626a.517.517,0,0,1,.2.037.345.345,0,0,1,.235.345.406.406,0,0,1-.019.119A.431.431,0,0,1,188.573,148.454Z" fill="#fafafa"/><path d="M192.8,141.51a1.042,1.042,0,0,1,.046.124q.11.376,1.207,6.352a.249.249,0,0,1,.017.092.381.381,0,0,1-.05.188.338.338,0,0,1-.306.188c-.018,0-.037,0-.059,0a.336.336,0,0,1-.283-.254l-.408-2.11h-2.105l-1.013,2.118a.441.441,0,0,1-.033.07.41.41,0,0,1-.317.18.371.371,0,0,1-.369-.368.277.277,0,0,1,.024-.11c.063-.148.168-.38.313-.7q2.211-4.827,2.644-5.7a.4.4,0,0,1,.355-.257A.385.385,0,0,1,192.8,141.51Zm-.459,1.42-1.139,2.4h1.608Z" fill="#fafafa"/><path d="M197.721,145.155c.241.67.428,1.185.559,1.549q.477,1.32.478,1.394a.325.325,0,0,1-.06.187.347.347,0,0,1-.308.169.337.337,0,0,1-.306-.248c-.023-.066-.043-.118-.058-.156q-.252-.578-.827-2.179l-1.748,2.389a.425.425,0,0,1-.327.194.4.4,0,0,1-.191-.05.341.341,0,0,1-.174-.309.442.442,0,0,1,.005-.078.9.9,0,0,1,.183-.3q.879-1.136,1.942-2.705c-.074-.205-.144-.4-.213-.583q-.985-2.643-.985-2.732a.393.393,0,0,1,.046-.188.324.324,0,0,1,.3-.184.371.371,0,0,1,.345.2l1.03,2.781,2.061-2.806a.415.415,0,0,1,.329-.174.343.343,0,0,1,.348.369.471.471,0,0,1-.037.17Z" fill="#fafafa"/><path d="M205.368,141.349a.383.383,0,0,1,.17.041.368.368,0,0,1,.2.317q-.759,5.994-.837,6.476a3.964,3.964,0,0,1-.662,1.687,2.386,2.386,0,0,1-3.04.745,2.189,2.189,0,0,1-1.09-.956.393.393,0,0,1-.041-.18.372.372,0,0,1,.05-.184.351.351,0,0,1,.317-.184.358.358,0,0,1,.281.152,1.982,1.982,0,0,0,1.582.9,1.564,1.564,0,0,0,1.228-.622,3.416,3.416,0,0,0,.681-1.943,1.863,1.863,0,0,1-1.564.846,1.636,1.636,0,0,1-.207-.014,1.652,1.652,0,0,1-1.173-.842,3.816,3.816,0,0,1-.515-2.059q0-.562.051-1.16.087-.937.418-2.663a.4.4,0,0,1,.033-.1.337.337,0,0,1,.33-.253.345.345,0,0,1,.18.051.324.324,0,0,1,.183.293,13.434,13.434,0,0,1-.169,1.41,19.265,19.265,0,0,0-.244,2.154,4.317,4.317,0,0,0,.276,1.676q.316.753.915.753a.6.6,0,0,0,.124-.014,1.685,1.685,0,0,0,.925-.739,4.634,4.634,0,0,0,.763-1.7l.469-3.522a.446.446,0,0,1,.046-.156A.338.338,0,0,1,205.368,141.349Z" fill="#fafafa"/><path d="M251.466,154.26c-.105,0-.189-4.219-.189-9.422s.084-9.423.189-9.423.189,4.218.189,9.423S251.57,154.26,251.466,154.26Z" fill="#f5f5f5"/><path d="M167.576,154.26c-.105,0-.19-4.219-.19-9.422s.085-9.423.19-9.423.189,4.218.189,9.423S167.68,154.26,167.576,154.26Z" fill="#e0e0e0"/><path d="M253.265,154.26c-.1,0-.19-4.219-.19-9.422s.085-9.423.19-9.423.189,4.218.189,9.423S253.369,154.26,253.265,154.26Z" fill="#f5f5f5"/><path d="M165.9,154.26c-.105,0-.19-4.219-.19-9.422s.085-9.423.19-9.423.189,4.218.189,9.423S166,154.26,165.9,154.26Z" fill="#e0e0e0"/><path d="M226.608,138.519l-.016-.032,10.835,8.741.1.078-.119.031-1.442.379-9.148,2.4-.018,0-.018-.008-8.291-3.516-2.347-1.005-.619-.27-.159-.072a.359.359,0,0,1-.052-.027.249.249,0,0,1,.056.018l.162.064.626.254,2.359.976,8.309,3.475-.036,0,9.145-2.412,1.441-.379-.023.108-10.813-8.769-.015-.013v-.02" fill="#e0e0e0"/><path d="M236.448,145.867l.591.556.793-.171-.346.734.408.7-.8-.1-.541.6-.151-.8-.742-.327.711-.39Z" fill="#e0e0e0"/><path d="M226.054,149.313l.4.336.505-.142-.195.487.291.437-.524-.035-.325.412-.129-.509-.492-.182.444-.28Z" fill="#e0e0e0"/><path d="M214.574,144.6l.643.04.4-.507.16.624.605.222-.544.345-.024.644-.5-.411-.62.176.237-.6Z" fill="#e0e0e0"/><path d="M241.306,138.657l.643.04.4-.507.16.624.6.222-.544.345-.024.644-.5-.411-.62.176.237-.6Z" fill="#e0e0e0"/><path d="M226.083,138.234l.41.026.254-.323.1.4.386.142-.347.221-.015.411-.317-.262-.4.113.151-.382Z" fill="#e0e0e0"/><path d="M242.209,139.108c0,.042-3.507-.075-7.828-.26s-7.824-.368-7.822-.41,3.506.074,7.828.259S242.21,139.066,242.209,139.108Z" fill="#e0e0e0"/><path d="M246.145,135.494H142.172c-1.362-3.09-1.695-6.025,0-8.654H246.145A10.027,10.027,0,0,1,246.145,135.494Z" fill="#e0e0e0"/><rect width="56.329" height="3.149" transform="translate(163.702 129.313)" fill="#ebebeb"/><path d="M146.163,135.541a3.027,3.027,0,0,1-.821-1.046,7.644,7.644,0,0,1-.551-6.262,3.026,3.026,0,0,1,.626-1.174,9.927,9.927,0,0,1-.371,1.254,8.761,8.761,0,0,0,.533,6.058A9.945,9.945,0,0,1,146.163,135.541Z" fill="#e0e0e0"/><path d="M148.413,135.541a3.013,3.013,0,0,1-.821-1.046,7.644,7.644,0,0,1-.551-6.262,3.026,3.026,0,0,1,.626-1.174,9.927,9.927,0,0,1-.371,1.254,8.746,8.746,0,0,0,.533,6.058A9.945,9.945,0,0,1,148.413,135.541Z" fill="#e0e0e0"/><path d="M241.939,135.339a17.785,17.785,0,0,0,.731-4.231,17.8,17.8,0,0,0-.682-4.24,8.806,8.806,0,0,1-.049,8.471Z" fill="#f5f5f5"/><path d="M240,135.318c-.114-.026.324-1.853.312-4.144.006-2.291-.437-4.117-.323-4.143a12.69,12.69,0,0,1,.011,8.287Z" fill="#f5f5f5"/><path d="M134.109,362.4c.087.138-1.73,1.383-4.55,3.527a106.087,106.087,0,0,0-19.668,19.329c-2.192,2.784-3.468,4.578-3.6,4.489-.108-.069.949-2.013,3.006-4.936a79.98,79.98,0,0,1,19.829-19.488C132.079,363.315,134.042,362.292,134.109,362.4Z" fill="#263238"/><path d="M130.384,347.127c.284.069-.685,5.009-2.164,11.034s-2.9,10.843-3.184,10.759.69-5.024,2.165-11.035S130.1,347.058,130.384,347.127Z" fill="#263238"/><path d="M128.765,346.3c-.738.327-.95,2.127-.34,2.994a2.238,2.238,0,0,0,2.856.5,2.41,2.41,0,0,0,.952-3.217,2.381,2.381,0,0,0-3.554-.219" fill="#455a64"/><path d="M136.52,353.239c.12.265-1.653,1.333-3.961,2.384s-4.277,1.69-4.4,1.424,1.652-1.333,3.961-2.384S136.4,352.974,136.52,353.239Z" fill="#263238"/><path d="M136.341,351.513a3.589,3.589,0,0,0-1.4,1.782,1.59,1.59,0,0,0,.836,1.923,1.5,1.5,0,0,0,1.4-.3,2.758,2.758,0,0,0,.806-1.231,2.229,2.229,0,0,0,.081-1.569,1.1,1.1,0,0,0-1.279-.7" fill="#455a64"/><path d="M136.292,360.4a2.164,2.164,0,1,1-.466.017" fill="#455a64"/><path d="M89.13,300.4a23.259,23.259,0,0,1,.26,3.575c.08,2.475.187,5.762.316,9.744.221,8.227.453,19.59.644,32.141s.305,23.921.335,32.148c-.008,3.983-.015,7.27-.02,9.745a23.167,23.167,0,0,1-.151,3.576,23.114,23.114,0,0,1-.26-3.569c-.08-2.474-.187-5.76-.316-9.742-.221-8.226-.453-19.594-.644-32.153s-.305-23.922-.335-32.15c.008-3.981.015-7.269.02-9.743A23.071,23.071,0,0,1,89.13,300.4Z" fill="#263238"/><path d="M105.141,293.542a15.86,15.86,0,1,1-17.064-14.556A15.86,15.86,0,0,1,105.141,293.542Z" fill="#e8505b"/><g opacity="0.3"><path d="M88.679,310.7c-.162-.023.047-1.775.136-4.59a26.1,26.1,0,0,0-1.623-10.671,14.821,14.821,0,0,0-7.161-7.673c-2.52-1.162-4.345-1-4.332-1.206,0-.062.436-.163,1.249-.164a9.552,9.552,0,0,1,3.374.683,14.556,14.556,0,0,1,7.845,7.954,23.545,23.545,0,0,1,1.393,11.122C89.276,309.009,88.805,310.718,88.679,310.7Z"/></g><g opacity="0.3"><path d="M103.469,288.6c.041.321-4.446.012-8.8,2.85-4.374,2.808-5.93,7.028-6.206,6.858-.121-.04.079-1.132.924-2.7a14.18,14.18,0,0,1,11.24-7.272C102.4,288.2,103.482,288.47,103.469,288.6Z"/></g><g opacity="0.3"><path d="M96.376,289.86c-.174.039-.377-1.046-1.361-2.4a7.141,7.141,0,0,0-11.114-.928c-1.194,1.169-1.574,2.206-1.739,2.139-.109-.017.018-1.205,1.189-2.643a7.438,7.438,0,0,1,12.291,1.026C96.558,288.67,96.486,289.862,96.376,289.86Z"/></g><g opacity="0.3"><path d="M92,292.9c-.309.029-.646-2.151-1.983-4.421-1.3-2.291-3.019-3.671-2.839-3.924.119-.248,2.305.863,3.754,3.4C92.408,290.472,92.279,292.92,92,292.9Z"/></g><g opacity="0.3"><path d="M90.455,288.18c.076.313-1.234.728-2.319,1.786-1.079,1.083-1.837,2.285-2.118,2.121-.221-.109.073-1.536,1.387-2.883C88.821,287.872,90.446,287.925,90.455,288.18Z"/></g><path d="M55.35,349.083c.278-.089,4.64,12.754,9.742,28.682s9.015,28.917,8.737,29.006-4.639-12.751-9.743-28.684S55.072,349.172,55.35,349.083Z" fill="#263238"/><path d="M65.5,380.773c-.177.19-4.632-3.331-10.2-7.615s-9.926-7.989-9.733-8.229c.173-.214,4.812,3.09,10.382,7.4C61.526,376.615,65.72,380.534,65.5,380.773Z" fill="#263238"/><path d="M43.089,363.614c-.858.784-.546,2.536.421,3.5s3.223.5,3.953-.656a2.61,2.61,0,0,0-.977-3.527,2.868,2.868,0,0,0-3.612.959" fill="#455a64"/><path d="M65.5,342.817c.32.064-.636,4.64-2.525,10s-3.05,9.768-3.317,9.726c-.312-.047.423-4.677,2.315-10.062C63.867,347.117,65.25,342.769,65.5,342.817Z" fill="#263238"/><path d="M65,338.862c-1.055.755-1.1,1.212-1.506,2.444s.175,2.865,1.445,3.129c1.188.247,2.289-.776,2.79-1.881a3.336,3.336,0,0,0-.027-3.185,1.845,1.845,0,0,0-2.834-.313" fill="#455a64"/><path d="M46.833,376.823c-.1-.272,1.769-1.318,4.185-2.336s4.475-1.628,4.6-1.362-1.753,1.311-4.186,2.335S46.938,377.1,46.833,376.823Z" fill="#263238"/><path d="M43.045,375.055c-.728.377-1.03,2.131-.99,2.866a2.375,2.375,0,0,0,1.124,1.806,2.827,2.827,0,1,0-.134-4.672" fill="#455a64"/><path d="M50.668,346.111a3.77,3.77,0,0,0,6.513,3.318,2.754,2.754,0,0,0,.732-2.152,4.371,4.371,0,0,0-3.4-3.128,3.9,3.9,0,0,0-3.841,1.962" fill="#455a64"/><path d="M105.01,361.9c.137.058-.383,1.646-1.256,4.2-1.037,2.947-2.207,6.274-3.5,9.943l-3.581,9.915c-.938,2.53-1.54,4.089-1.682,4.046-.3-.088,1.48-6.551,4.268-14.315C102.013,367.913,104.721,361.778,105.01,361.9Z" fill="#263238"/><path d="M121.848,354.62a13.574,13.574,0,1,1-10.457-16.1A13.573,13.573,0,0,1,121.848,354.62Z" fill="#e8505b"/><g opacity="0.3"><path d="M104.164,364.688c-.146-.068.435-1.463,1.178-3.751a22.552,22.552,0,0,0,1.242-9.125,12.706,12.706,0,0,0-3.967-8.006c-1.764-1.569-3.29-1.9-3.226-2.086-.009-.1,1.656-.03,3.7,1.51a12.442,12.442,0,0,1,4.541,8.47,19.984,19.984,0,0,1-1.59,9.492C105.1,363.465,104.281,364.744,104.164,364.688Z"/></g><g opacity="0.3"><path d="M121.68,350.155c-.063.311-3.66-.992-7.891.269-4.243,1.229-6.562,4.271-6.784,4.044-.106-.075.31-.935,1.38-2.029a12.022,12.022,0,0,1,11.037-3.244C120.914,349.537,121.729,350.035,121.68,350.155Z"/></g><g opacity="0.3"><path d="M115.553,349.465c-.173-.014-.1-.952-.585-2.283a6.1,6.1,0,0,0-8.814-3.436c-1.26.649-1.839,1.391-1.975,1.285-.1-.052.276-1.011,1.591-1.926a6.391,6.391,0,0,1,9.914,3.866C116.033,348.534,115.663,349.5,115.553,349.465Z"/></g><g opacity="0.3"><path d="M111.226,350.9c-.3-.063-.085-1.925-.624-4.092-.5-2.177-1.541-3.737-1.3-3.93.189-.2,1.75,1.232,2.327,3.684C112.226,349,111.487,350.99,111.226,350.9Z"/></g><g opacity="0.3"><path d="M111.1,346.645c-.02.316-1.184.377-2.3.968-1.127.613-2.07,1.389-2.289,1.157-.184-.172.377-1.3,1.805-2.1C109.831,345.915,111.164,346.392,111.1,346.645Z"/></g><path d="M73.758,333.431a9.9,9.9,0,0,1,.525,2.256q.426,2.527,1.042,6.187c.834,5.227,1.913,12.454,3.04,20.443S80.455,377.55,81.1,382.8c.279,2.451.516,4.53.708,6.225a9.691,9.691,0,0,1,.118,2.3,9.677,9.677,0,0,1-.524-2.245q-.426-2.526-1.042-6.182c-.833-5.228-1.914-12.462-3.042-20.461s-2.09-15.244-2.735-20.494c-.278-2.45-.515-4.528-.708-6.222A9.518,9.518,0,0,1,73.758,333.431Z" fill="#263238"/><path d="M85.294,319.169a13.573,13.573,0,1,1-16.732-9.408A13.573,13.573,0,0,1,85.294,319.169Z" fill="#e8505b"/><g opacity="0.3"><path d="M74.3,336.293c-.162.008-.294-1.5-.7-3.87a22.588,22.588,0,0,0-3.134-8.659,12.715,12.715,0,0,0-7.229-5.251c-2.291-.571-3.8-.157-3.826-.351-.052-.08,1.453-.795,3.979-.379a12.443,12.443,0,0,1,7.954,5.4,19.985,19.985,0,0,1,3,9.146C74.565,334.775,74.431,336.289,74.3,336.293Z"/></g><g opacity="0.3"><path d="M83.075,315.292c.088.3-3.7.82-6.866,3.9-3.188,3.057-3.831,6.829-4.133,6.73-.128-.017-.16-.972.28-2.438a12.029,12.029,0,0,1,8.273-7.995C82.108,315.1,83.062,315.163,83.075,315.292Z"/></g><g opacity="0.3"><path d="M77.326,317.524c-.159.068-.527-.8-1.577-1.751a6.1,6.1,0,0,0-9.4,1.046c-.816,1.16-.984,2.086-1.154,2.055-.114,0-.224-1.024.516-2.444a6.392,6.392,0,0,1,10.576-1.177C77.32,316.476,77.438,317.5,77.326,317.524Z"/></g><g opacity="0.3"><path d="M74.157,320.8c-.3.084-.968-1.666-2.451-3.335-1.456-1.695-3.1-2.6-2.976-2.878.074-.267,2.122.28,3.771,2.183S74.432,320.761,74.157,320.8Z"/></g><g opacity="0.3"><path d="M72.077,317.09c.129.289-.875.883-1.591,1.926-.714,1.066-1.189,2.191-1.491,2.088-.243-.068-.268-1.324.627-2.694C70.61,317.033,72.013,316.838,72.077,317.09Z"/></g><path d="M75.7,477.811,63.372,388.925H116.4l-10.826,88.886Z" fill="#263238"/><path d="M112.578,423.686c0,.246-9.937.445-22.192.445s-22.194-.2-22.194-.445,9.935-.445,22.194-.445S112.578,423.44,112.578,423.686Z" fill="#fafafa"/><path d="M111.474,429.4c0,.246-9.512.445-21.244.445s-21.245-.2-21.245-.445,9.51-.445,21.245-.445S111.474,429.157,111.474,429.4Z" fill="#fafafa"/><path d="M110.808,434.871c0,.246-9.193.445-20.531.445s-20.533-.2-20.533-.445,9.191-.445,20.533-.445S110.808,434.626,110.808,434.871Z" fill="#fafafa"/><path d="M110.084,440.811c0,.246-8.847.445-19.757.445s-19.76-.2-19.76-.445,8.845-.445,19.76-.445S110.084,440.565,110.084,440.811Z" fill="#fafafa"/><path d="M109.423,446.24c0,.246-8.442.445-18.852.445s-18.855-.2-18.855-.445,8.44-.445,18.855-.445S109.423,445.994,109.423,446.24Z" fill="#fafafa"/><path d="M108.367,451.668c0,.247-8.125.446-18.146.446s-18.148-.2-18.148-.446,8.124-.444,18.148-.444S108.367,451.423,108.367,451.668Z" fill="#fafafa"/><path d="M108.1,457.1c0,.246-7.9.446-17.636.446s-17.638-.2-17.638-.446,7.9-.445,17.638-.445S108.1,456.852,108.1,457.1Z" fill="#fafafa"/><path d="M107.439,462.526c0,.246-7.58.445-16.929.445s-16.931-.2-16.931-.445,7.579-.445,16.931-.445S107.439,462.281,107.439,462.526Z" fill="#fafafa"/><path d="M227.406,90.88c-1.584,2.587-5.358,3.1-8.111,1.829s-4.647-3.87-6.141-6.51-2.741-5.466-4.755-7.734a14.1,14.1,0,0,0-13.982-4.251,12.879,12.879,0,0,0-9.236,11.117c-.432,6.175,4.106,11.877,9.688,14.552s12.006,2.89,18.191,2.641" fill="#263238"/><path d="M302.45,95.183c6.013-2.874,13.65.639,17.074,6.357s3.426,12.889,2.1,19.421c-1.256,6.184-3.289,13.554,1.116,18.073,3.452,3.541,9.767,3.746,12.212,8.044,3.513,6.175-4.371,13.4-3.29,20.422.684,4.436,4.794,7.521,8.907,9.318s8.641,2.869,12.164,5.65,5.642,8.145,3.049,11.808L332.81,201.5l-4.677-8.085c1.614,3.412.888,7.581-1.041,10.826s-4.908,5.719-7.956,7.947c-11.895,8.692-26.324,14.731-41.034,13.915" fill="#263238"/><path d="M202.465,107.15c-.176-6.136,5.5-10.877,11.212-13.125s12.061-3.1,17.153-6.522c4.509-3.035,7.539-7.768,11.356-11.637A37.785,37.785,0,0,1,305.734,93.2c2.194,8.739.7,19.07-6.193,24.877-7.994,6.74-19.846,5.243-30.09,3.147s-21.838-4.164-30.391,1.851c-5.158,3.628-8.115,9.529-11.267,14.991s-7.111,11.037-13.073,13.09-14.059-1.492-14.292-7.794" fill="#263238"/><path d="M202.878,110.518c.676,5.143-3.046,9.748-6.751,13.379s-7.891,7.482-8.545,12.628c-.763,6.01,3.625,11.93,2.352,17.854-.808,3.761-3.733,6.657-5.507,10.07a21.4,21.4,0,0,0-1.092,15.767c1.527,5.18,3.961,16.747,7.561,20.772,9.957,11.131,25.81,20.737,40.364,24.081s29.673,3.363,44.579,2.446c12.2-.75,26.235-.19,36.4-16.977,5.266-8.695,7.875-20.255,10.675-30.028,2.41-8.414,4.494-17.425,1.988-25.811-1.459-4.886-4.4-9.231-5.838-14.123-1.8-6.111-1.143-12.648-1.867-18.977a43.54,43.54,0,0,0-61.947-34.38" fill="#263238"/><path d="M311.363,131.6c-1.142-17.51-12.793-38.973-30.24-37.088l-54.46,13.893a10.269,10.269,0,0,0-9.164,10.435L221.04,238.5a31.576,31.576,0,0,0,32.249,30.634h0a31.579,31.579,0,0,0,30.89-31.519c.015-8.527.021-18.574.024-18.531,0,0,22.367-3.764,26.938-32.967C313.414,171.59,312.632,151.06,311.363,131.6Z" fill="#ffbe9d"/><path d="M301.645,154.191a3.742,3.742,0,0,1-3.6,3.785,3.58,3.58,0,0,1-3.867-3.367,3.745,3.745,0,0,1,3.6-3.787A3.583,3.583,0,0,1,301.645,154.191Z" fill="#263238"/><path d="M306.227,144c-.463.489-3.3-1.6-7.333-1.584-4.025-.038-6.977,2.041-7.415,1.548-.215-.217.256-1.1,1.541-2.04a10.274,10.274,0,0,1,5.934-1.844,9.868,9.868,0,0,1,5.838,1.871C306.033,142.9,306.455,143.781,306.227,144Z" fill="#263238"/><path d="M262.991,154.191a3.742,3.742,0,0,1-3.6,3.785,3.582,3.582,0,0,1-3.867-3.367,3.746,3.746,0,0,1,3.6-3.787A3.582,3.582,0,0,1,262.991,154.191Z" fill="#263238"/><path d="M266.628,144.84c-.465.489-3.309-1.6-7.335-1.584-4.024-.039-6.977,2.04-7.414,1.548-.215-.218.251-1.1,1.541-2.04a10.273,10.273,0,0,1,5.934-1.845,9.878,9.878,0,0,1,5.839,1.871C266.43,143.738,266.854,144.62,266.628,144.84Z" fill="#263238"/><path d="M281.314,174.684c-.018-.228,2.484-.667,6.542-1.2,1.028-.108,2-.315,2.173-1.017.241-.744-.192-1.851-.693-3.048q-1.459-3.73-3.06-7.827c-4.249-11.143-7.329-20.308-6.878-20.475s4.261,8.73,8.51,19.874q1.533,4.122,2.931,7.874c.393,1.168,1.065,2.493.543,4.036a2.584,2.584,0,0,1-1.688,1.509,6.975,6.975,0,0,1-1.747.245C283.864,174.89,281.33,174.914,281.314,174.684Z" fill="#263238"/><path d="M245.483,208.692s9.5,20.052,38.712,17.256l.008-6.868A73.542,73.542,0,0,1,245.483,208.692Z" fill="#eb996e"/><path d="M279.633,184.4a7.261,7.261,0,0,0-6.515-2.682,6.629,6.629,0,0,0-4.571,2.465,4.2,4.2,0,0,0-.308,4.8c1.09,1.527,3.363,1.874,5.284,1.324a15.246,15.246,0,0,0,5.142-3.085,4.443,4.443,0,0,0,1.148-1.194,1.345,1.345,0,0,0-.009-1.5" fill="#e8505b"/><path d="M269.464,177.5c.655-.039.674,4.334,4.424,7.429s8.4,2.605,8.438,3.216c.062.275-1.036.852-3,.91a10.89,10.89,0,0,1-7.044-2.437,9.476,9.476,0,0,1-3.428-6.23C268.68,178.557,269.165,177.473,269.464,177.5Z" fill="#263238"/><path d="M267.6,133.042c-.394,1.1-4.419.586-9.143,1.166-4.738.485-8.546,1.877-9.176.9-.281-.469.382-1.5,1.92-2.565a16.022,16.022,0,0,1,13.957-1.572C266.894,131.663,267.769,132.522,267.6,133.042Z" fill="#263238"/><path d="M304.72,132.343c-.707.917-3.484-.027-6.822-.064-3.335-.154-6.162.628-6.815-.327-.286-.465.158-1.381,1.39-2.251a9.876,9.876,0,0,1,10.988.316C304.642,130.955,305.031,131.9,304.72,132.343Z" fill="#263238"/><path d="M206.279,204.455a25.922,25.922,0,0,0,30.839-28.667c-.908-7.169-4.773-14.464-2.288-21.25,3.287-8.972,15.863-11.733,19.2-20.686,1.94-5.2.2-11.291,2.4-16.39,2.067-4.8,7.112-7.557,12.023-9.333s10.176-3,14.3-6.206,6.7-9.254,4.035-13.747a276.632,276.632,0,0,0-63.791,15.5c-4.764,1.779-9.769,3.918-12.585,8.153-2.981,4.481-2.838,10.27-2.587,15.646l3.669,78.638" fill="#263238"/><path d="M287.6,77.123c.753,7.358,1.489,14.925-.518,22.043s-7.425,13.785-14.721,15c-3.455.577-7.332,0-10.174,2.049-6.03,4.346-1.093,14.529-4.65,21.056-3.188,5.852-11.756,6.379-16,11.513-4.683,5.656-2.264,14.179,1.007,20.754s7.306,13.813,5.123,20.824c-2.44,7.838-11.8,12-14.1,19.875-1.482,5.075.078,11.328-3.55,15.174-2.8,2.971-7.449,3.028-11.517,2.656a115.185,115.185,0,0,1-47.473-15.216,27.02,27.02,0,0,0,3.916-13.441l-8.17,5.952-18.841-23.48a38.237,38.237,0,0,1,21.173-21.25c5.7-2.265,12.994-4.191,14.33-10.175.739-3.314-3.237-9.342-1.09-17.034,0,0,3.585-14.647,12.062-18.778s7.3-6.606,9.152-12.247" fill="#263238"/><path d="M152.585,179.47c.012-.2,2.63-.106,7.325-.056a70.409,70.409,0,0,0,8.491-.389,33.452,33.452,0,0,0,10.656-2.89,25.669,25.669,0,0,0,5.347-3.421,19,19,0,0,0,4.328-5.186,19.733,19.733,0,0,0,2.188-6.9c.4-2.535.535-5.244.961-8.081a21.8,21.8,0,0,1,2.924-8.517,12.234,12.234,0,0,1,3.38-3.531,13.742,13.742,0,0,1,4.558-1.9c3.179-.739,6.338-.663,9.329-1.015,2.985-.322,5.844-1.132,7.753-3.265a16.576,16.576,0,0,0,3.631-7.917c.632-2.926.838-6.038,1.445-9.1a19.769,19.769,0,0,1,3.606-8.712,17.05,17.05,0,0,1,3.4-3.2,19.992,19.992,0,0,1,3.957-2.135c5.484-2.2,11.163-2.218,16.122-1.7,4.994.5,9.514,1.327,13.651,1.5a35.169,35.169,0,0,0,5.85-.167,23.07,23.07,0,0,0,5.026-1.219,18.682,18.682,0,0,0,7-4.35,12.956,12.956,0,0,0,2.9-4.352c.461-1.123.609-1.767.723-1.746a4.094,4.094,0,0,1-.225,1.913,11.911,11.911,0,0,1-2.653,4.87,18.917,18.917,0,0,1-7.213,5.021,23.857,23.857,0,0,1-5.32,1.5,35.569,35.569,0,0,1-6.145.368c-4.3-.058-8.907-.79-13.781-1.185a42.636,42.636,0,0,0-7.474-.044,26.33,26.33,0,0,0-7.543,1.807,15.4,15.4,0,0,0-6.306,4.647,17.4,17.4,0,0,0-3.064,7.664c-.56,2.888-.744,5.963-1.417,9.168a18.968,18.968,0,0,1-4.268,9.158,11.608,11.608,0,0,1-4.431,2.956,19.922,19.922,0,0,1-4.926,1.1c-3.223.355-6.3.288-9.044.926a11.25,11.25,0,0,0-3.725,1.51,9.781,9.781,0,0,0-2.705,2.795,19.6,19.6,0,0,0-2.639,7.536c-.436,2.669-.613,5.4-1.071,8.073a21.765,21.765,0,0,1-2.572,7.6,20.849,20.849,0,0,1-4.924,5.666,27.133,27.133,0,0,1-5.857,3.545,33.8,33.8,0,0,1-11.288,2.666,59.867,59.867,0,0,1-8.668-.047C155.148,180.064,152.575,179.631,152.585,179.47Z" fill="#e0e0e0"/><path d="M216.538,89.9c.315.146.165,1.3-.558,2.985a21.688,21.688,0,0,1-3.949,5.924,22.709,22.709,0,0,1-5.543,4.448c-1.6.878-2.726,1.157-2.908.86-.382-.647,3.046-3.245,6.535-7.071C213.655,93.265,215.854,89.6,216.538,89.9Z" fill="#e8505b"/><path d="M343.561,422.436l5.374,55.435-168.775-.061,32.607-65.82Z" fill="#e8505b"/><path d="M348.681,357.593l32.839,48.394s6.712-53.117,7.334-51.924S352.047,303.2,352.047,303.2Z" fill="#eb996e"/><path d="M213.1,239.87c-1.305,0-43.157,17.035-47.941,24.862s25.125,155.3,25.125,155.3l153.273,3.153,1.512-70.455L356.5,258.453l-63.382-21.361-8.451-7.363L267.5,259.6l-47.17-30.228Z" fill="#e8505b"/><g opacity="0.3"><path d="M206.739,472.976c10.161-2.646,18.539-10.112,24.367-18.846s9.415-18.739,12.853-28.66,6.83-19.97,12.333-28.913c4.054-6.589,9.176-12.445,14.272-18.267,2.429-2.776,4.9-5.589,8.006-7.584,3.851-2.476,8.418-3.531,12.882-4.544l23.475-5.329a26.783,26.783,0,0,0,8.471-2.957c2.544-1.6,4.6-4.311,4.582-7.317-11.708,1.185-23.534.82-35.234,2.075s-23.578,4.3-32.922,11.453c-9.413,7.2-15.453,17.936-20.181,28.8-11.493,26.424-16.877,55.617-32.088,80.09"/></g><path d="M165.163,264.732s-12.715,8.336-16.051,34.892c-2.478,19.731-7.431,75.576-7.431,75.576l60.471-5.052Z" fill="#e8505b"/><path d="M141.681,375.2a1.305,1.305,0,0,1,.3-.052l.9-.1,3.457-.338,12.722-1.146,41.987-3.585,1.081-.09-.236.294c-2.13-16.062-4.05-30.549-5.444-41.063l-1.587-12.412c-.172-1.438-.308-2.568-.405-3.375-.038-.362-.068-.652-.092-.878a1.3,1.3,0,0,1-.014-.3,1.317,1.317,0,0,1,.066.295c.037.224.084.512.143.872.12.8.288,1.928.5,3.361.418,2.959,1.014,7.181,1.749,12.39,1.434,10.509,3.409,24.989,5.6,41.043l.037.271-.274.023-1.081.09-42,3.433-12.735.981-3.465.24-.9.05A1.365,1.365,0,0,1,141.681,375.2Z" fill="#263238"/><path d="M267.021,259.215a6.034,6.034,0,0,1-.988-.271l-2.761-.887-9.875-3.3.257-.093-4.627,7.825-.117.2-.208-.1c-2.421-1.177-5.007-2.486-7.649-3.894a219.4,219.4,0,0,1-19.409-11.659c-2.4-1.617-4.307-2.988-5.617-3.941l-1.49-1.123a3.079,3.079,0,0,1-.5-.42,3.009,3.009,0,0,1,.56.335l1.546,1.043c1.344.9,3.276,2.224,5.7,3.8,4.846,3.159,11.652,7.364,19.45,11.507,2.636,1.4,5.214,2.717,7.624,3.9l-.325.1,4.684-7.791.092-.152.165.058,9.816,3.475,2.721,1A6.055,6.055,0,0,1,267.021,259.215Z" fill="#263238"/><path d="M292.368,237.32a1.694,1.694,0,0,1-.015.483c-.03.315-.067.78-.156,1.374a44.679,44.679,0,0,1-.971,4.993,51.246,51.246,0,0,1-2.373,7.167c-.548,1.313-1.175,2.671-1.893,4.044-.362.685-.742,1.375-1.148,2.065a5.407,5.407,0,0,1-.716,1.033,1.558,1.558,0,0,1-1.283.565,2.077,2.077,0,0,1-1.2-.654c-.308-.3-.555-.616-.817-.914q-.775-.908-1.529-1.786l-2.886-3.38a5.383,5.383,0,0,0-1.477-1.3,1.429,1.429,0,0,0-1.6.1,6.607,6.607,0,0,0-1.159,1.318c-.352.464-.69.912-1.015,1.34l-3.089,4.027-.861,1.079c-.2.243-.314.366-.329.355a1.725,1.725,0,0,1,.244-.418l.783-1.137,2.956-4.125.988-1.361a6.821,6.821,0,0,1,1.224-1.424,1.878,1.878,0,0,1,2.068-.159,5.726,5.726,0,0,1,1.633,1.393l2.911,3.362,1.535,1.781c.517.582,1.027,1.306,1.674,1.388.641.065,1.129-.685,1.5-1.343.4-.682.781-1.364,1.143-2.04.716-1.356,1.346-2.7,1.9-3.992a55.472,55.472,0,0,0,2.46-7.074c.567-2.059.907-3.757,1.127-4.933A15.308,15.308,0,0,1,292.368,237.32Z" fill="#263238"/><path d="M320.392,398.953c.069.126-13.2,7.561-29.639,16.6S260.929,431.831,260.86,431.7s13.2-7.559,29.642-16.6S320.323,398.827,320.392,398.953Z" fill="#263238"/><path d="M311.227,428.17c.007.144-8.537.716-19.083,1.279s-19.1.9-19.112.759,8.536-.716,19.085-1.279S311.219,428.027,311.227,428.17Z" fill="#263238"/><path d="M349.773,364.779l-8.587-8.829L349.8,310.8l8.617,30.305Z" fill="#e8505b"/><path d="M343.372,419.859a.748.748,0,0,1-.019-.232c0-.184,0-.407,0-.679q.01-.961.031-2.61c.044-2.313.107-5.579.184-9.6.16-8.1.382-19.3.516-31.657s.108-23.561-.1-31.659c-.086-4.049-.256-7.322-.388-9.582q-.12-1.641-.191-2.6c-.014-.272-.026-.494-.036-.679a.117.117,0,1,1,.052-.006l.089.673q.107.957.288,2.6c.194,2.259.421,5.535.554,9.587.3,8.1.379,19.305.251,31.676s-.415,23.559-.669,31.66c-.146,4.015-.265,7.28-.349,9.593q-.082,1.644-.13,2.607c-.019.271-.034.493-.047.677A.781.781,0,0,1,343.372,419.859Z" fill="#263238"/><path d="M314.505,234.119a5.335,5.335,0,0,0-5.327,1.083c-2.379,2.23-2.082,4.757-1.338,7.135a5.177,5.177,0,0,0,2.23,3.122l9.811-4.608Z" fill="#eb996e"/><path d="M305.565,249.689s-4.109,2.811-4.257,3.661c-.106.611.642,1.38,1.8.986a35.207,35.207,0,0,0,3.852-2.058Z" fill="#e8505b"/><g opacity="0.3"><path d="M305.565,249.689s-4.109,2.811-4.257,3.661c-.106.611.642,1.38,1.8.986a35.207,35.207,0,0,0,3.852-2.058Z"/></g><path d="M315.234,239.316l-11.321,10.673,2.519,3.5,12.229-4.363,62.423-35.43a4.591,4.591,0,0,0,1.6-6.465h0a4.591,4.591,0,0,0-6.075-1.553Z" fill="#455a64"/><path d="M434.505,373.6c-.7-10.132-64.184-97.818-68.151-103.288l-10.979-22.763-4.661-19.181s-24.917-14.34-26.889-14.34-11.651,12.369-11.831,14.34a4.67,4.67,0,0,0,1.255,3.406l1.255,12.548a7.026,7.026,0,0,0-.358,5.334c1.075,2.554,5.377,2.554,5.377,2.554l-1.613,5.429s.358,6.043,1.434,7.119c.417.416,2.54.719,4.9.28,2.063-.385,2.64-3.391,2.543-4.832.667,1.071,2.909,0,2.909,0,.216,2.548,2.873,4.45,2.873,4.45s3.8,15.341,4.341,17.313,3.944,6.991,8.963,8.784a13.023,13.023,0,0,1,1.239.521c3.672,13.758,29.057,108.367,34.407,114.72,5.771,6.853,21.4,11.146,35.47,10.425S435.227,384.055,434.505,373.6Z" fill="#ffbe9d"/><path d="M337.22,226.1a23.5,23.5,0,0,1-3.538.226c-2.187.07-5.209.129-8.548.14-1.67.006-3.261,0-4.709-.031-.724-.013-1.412-.034-2.062-.073a3.1,3.1,0,0,0-1.617.374,9.453,9.453,0,0,0-2.055,1.485,5.18,5.18,0,0,1-.712.63c-.027-.022.156-.312.568-.773a8.093,8.093,0,0,1,2.029-1.668,3.42,3.42,0,0,1,1.811-.479c.635.019,1.322.024,2.044.025l4.7-.01,8.545.012A24.164,24.164,0,0,1,337.22,226.1Z" fill="#eb996e"/><path d="M329.724,226.1a2.767,2.767,0,0,1-1.366-.622,14.069,14.069,0,0,1-2.676-2.417l-.284-.334.436-.274a1.569,1.569,0,0,1,.025,1.1,3.145,3.145,0,0,1-.445.828,6.38,6.38,0,0,1-1.036,1.093c-.647.544-1.106.784-1.143.73s.337-.393.9-.986a8.048,8.048,0,0,0,.894-1.1,1.629,1.629,0,0,0,.336-1.448l-.729-1.632L325.8,222.4l.273.318a22.035,22.035,0,0,0,2.5,2.463C329.264,225.763,329.758,226.027,329.724,226.1Z" fill="#eb996e"/><path d="M335.427,237.3a26.592,26.592,0,0,1-3.092.12c-1.9.052-4.535.189-7.434.439a17.369,17.369,0,0,0-7.056,1.923c-1.663.9-2.552,1.7-2.612,1.623-.021-.025.178-.248.58-.6a12.569,12.569,0,0,1,1.851-1.338,16.1,16.1,0,0,1,7.193-2.121,72.383,72.383,0,0,1,7.477-.289A13.884,13.884,0,0,1,335.427,237.3Z" fill="#eb996e"/><path d="M323.668,237.719a4.963,4.963,0,0,1-5.007-3.895c.154-.078.722,1.349,2.12,2.441A17.048,17.048,0,0,0,323.668,237.719Z" fill="#eb996e"/><path d="M335.179,244.7a6.374,6.374,0,0,1-2.074,1.063,33.184,33.184,0,0,1-5.449,1.317,27.218,27.218,0,0,0-5.344,1.391c-1.306.53-2.033,1.038-2.086.962a5.753,5.753,0,0,1,1.937-1.3,21.262,21.262,0,0,1,5.4-1.566,51.566,51.566,0,0,0,5.429-1.155C334.345,245.006,335.138,244.616,335.179,244.7Z" fill="#eb996e"/><path d="M325.155,254.852c.031-.054.532.128,1.185.689a4.514,4.514,0,0,1,1.514,2.954,2.951,2.951,0,0,1-.357,1.863,4.115,4.115,0,0,1-.96,1.178c-.7.553-1.282.559-1.284.506-.03-.083.483-.224,1.038-.78a4.505,4.505,0,0,0,.784-1.132,2.641,2.641,0,0,0,.261-1.582,4.733,4.733,0,0,0-1.254-2.744C325.538,255.215,325.111,254.92,325.155,254.852Z" fill="#eb996e"/><path d="M332.667,254.061c.061.031-.056.443-.345,1.078a5.3,5.3,0,0,1-1.712,2.171,3.15,3.15,0,0,1-1.479.564,2.533,2.533,0,0,1-1.281-.213c-.689-.327-.868-.806-.813-.826.064-.053.335.3.947.483a2.66,2.66,0,0,0,2.331-.437A6.506,6.506,0,0,0,332,254.962C332.362,254.388,332.6,254.027,332.667,254.061Z" fill="#eb996e"/><path d="M334.907,261.721c.011.06-.423.214-1.149.136a3.964,3.964,0,0,1-3.5-3.9c0-.73.2-1.145.258-1.127.08.016.017.443.109,1.1a4.152,4.152,0,0,0,3.2,3.567C334.468,261.657,334.9,261.64,334.907,261.721Z" fill="#eb996e"/><path d="M377.535,217.115a23.241,23.241,0,0,1-5.619-8.853c.129-.054,1.18,2.037,2.744,4.469C376.194,215.18,377.639,217.022,377.535,217.115Z" fill="#263238"/><path d="M378.607,215.5q-8.013,4.656-16.27,8.876l-.094.065a.643.643,0,0,0,.36.922,1.64,1.64,0,0,0,1.123-.107,17.9,17.9,0,0,0,2.654-1.324l10.85-6.185a3.811,3.811,0,0,0,1.163-.878A1.3,1.3,0,0,0,378.607,215.5Z" fill="#263238"/><path d="M217.4,377.42l-17.571,27.109-.944-34.108-49.06,4.1c-.087,1.33,3.526,41.471,8.965,76.1,2.372,15.1,17.769,26.555,33.059,26.555h0a31.051,31.051,0,0,0,28.132-17.908l30.062-75.262Z" fill="#ffbe9d"/><path d="M253.741,270.605c-.073-.458,1.493-6.789,1.493-6.789s76.217-3.807,76.381-3.709l4.594,2.766Z" fill="#fff"/><path d="M253.741,270.605s.154-.027.439-.06l1.255-.137,4.8-.488,17.625-1.732,58.323-5.574-.11.482-2.549-1.534-1.418-.854c-.236-.116-.471-.342-.707-.367a6.614,6.614,0,0,1-.691.053l-3.267.143-6.431.3-12.385.59-22.355,1.065-31.032,1.427.094-.078-1.23,5.012c-.273,1.15-.363,1.753-.363,1.753a7.226,7.226,0,0,1,.26-1.776c.234-1.155.613-2.853,1.134-5.038l.017-.074.077,0,31.021-1.654,22.353-1.13,12.385-.607,6.432-.3,3.269-.145c.308-.011.641-.008.954.005a2.909,2.909,0,0,1,.733.383l1.418.853,2.55,1.535.68.41-.79.072-58.528,5.382-17.582,1.569-4.751.407-1.225.1A3.145,3.145,0,0,1,253.741,270.605Z" fill="#263238"/><path d="M254.142,271.853l-.4-1.248-1.01-6.358L181.289,249.68l-6.953,5.231L184.8,347.646l72.6,18.079Z" fill="#fff"/><path d="M254.142,271.853s.017.145.033.436.036.732.063,1.294c.049,1.157.119,2.849.211,5.05.169,4.437.416,10.914.729,19.136.6,16.483,1.444,39.949,2.456,67.947l.011.306-.3-.074L184.741,347.9l-.175-.043-.02-.18c-.248-2.189-.514-4.548-.782-6.917-3.523-31.323-6.829-60.715-9.654-85.822l-.014-.129.1-.077,6.958-5.225.079-.059.1.019,71.412,14.711.051.01.007.05c.517,3.436.827,5.5.957,6.366v0c.344,1.094.382,1.254.382,1.254s-.064-.156-.42-1.242v0c-.145-.864-.489-2.922-1.063-6.349l.057.06-71.471-14.425.175-.039-6.948,5.237.089-.206c2.843,25.1,6.173,54.494,9.721,85.813.267,2.37.534,4.728.781,6.918l-.2-.224L257.46,365.5l-.286.231c-.933-27.99-1.716-51.449-2.266-67.926-.258-8.228-.462-14.709-.6-19.15-.062-2.205-.109-3.9-.141-5.061-.012-.564-.021-.995-.027-1.3S254.142,271.853,254.142,271.853Z" fill="#263238"/><path d="M171.616,254.144l6.72,93.686L257.4,364.219l79.72-14.33.922-87.348-79.436,4.506s-.482,3.558-6.309,3.432l-3.917-1.341L175.6,254.923Z" fill="#455a64"/><line x2="2.068" y2="101.349" transform="translate(258.61 267.047)" fill="#fff"/><path d="M260.679,368.4c-.144,0-.724-22.684-1.295-50.667s-.917-50.679-.774-50.682.724,22.679,1.3,50.672S260.822,368.393,260.679,368.4Z" fill="#263238"/><path d="M250.512,365.725a.9.9,0,0,1-.038-.248c-.016-.195-.035-.435-.059-.73q-.064-1.027-.177-2.81c-.152-2.441-.307-5.976-.49-10.343-.352-8.737-.692-20.81-.948-34.146s-.4-25.418-.452-34.16c-.013-4.339-.023-7.864-.031-10.353.01-1.189.017-2.129.023-2.815l.019-.732a.924.924,0,0,1,.025-.25.884.884,0,0,1,.029.249l.032.732c.018.685.043,1.625.075,2.814.047,2.488.114,6.013.2,10.35.155,8.778.369,20.834.6,34.155.257,13.334.538,25.406.8,34.143.136,4.335.246,7.859.324,10.346.034,1.189.06,2.129.08,2.815,0,.3,0,.536.007.732A.91.91,0,0,1,250.512,365.725Z" fill="#263238"/><path d="M240.645,396.049l-.305.128Z" fill="#ffbe9d"/><path d="M240.734,396.012l-.049.02Z" fill="#ffbe9d"/><path d="M240.772,396l-.038.016Z" fill="#ffbe9d"/><path d="M240.685,396.032l-.04.017Z" fill="#ffbe9d"/><path d="M276.636,342.339c3.871-3.816,7.662-7.7,8.532-9.118,1.909-3.1-1.194-5.251-3.342-6.206s-30.313,23.152-30.313,23.152,23.63-21,25.062-22.436,2.387-3.342.955-7.161-5.967-2.387-7.638-2.148-28.4,22.675-28.4,22.675S257,326.06,258.435,324.867s1.909-3.342,1.432-6.206-3.58-2.626-5.729-2.626-35.73,29.836-35.73,29.836l1.6,15.753-5.685,24.126L240.772,396c4.535-1.91,13.128-13.087,14.8-15.276s11.218-18.379,11.218-18.379c3.819-2.149,9.309-10.741,11.457-13.128s1.432-3.581.239-5.49c-.643-1.027-6.879,3.955-12.506,8.779l1.287-1.141S272.008,346.9,276.636,342.339Z" fill="#ffbe9d"/><path d="M228.655,352.111a2.8,2.8,0,0,1-1.486.688,5.766,5.766,0,0,1-6.636-3.348,2.779,2.779,0,0,1-.329-1.6c.084-.016.2.594.66,1.444a5.967,5.967,0,0,0,6.237,3.146C228.058,352.3,228.618,352.033,228.655,352.111Z" fill="#eb996e"/><path d="M239.552,361.1a2.32,2.32,0,0,1-1.409.118,5.387,5.387,0,0,1-4.68-4.494,2.317,2.317,0,0,1,.061-1.412,11.309,11.309,0,0,1,.3,1.336,5.739,5.739,0,0,0,4.382,4.207A11.357,11.357,0,0,1,239.552,361.1Z" fill="#eb996e"/><path d="M251.636,370.148a3.146,3.146,0,0,1-1.658-.151,7.087,7.087,0,0,1-5.126-5.772,3.133,3.133,0,0,1,.047-1.664c.084,0,.083.631.315,1.593a7.652,7.652,0,0,0,4.876,5.493C251.018,369.991,251.644,370.064,251.636,370.148Z" fill="#eb996e"/><path d="M203.677,399.132c.12.08-5.456,8.758-12.452,19.382s-12.769,19.176-12.889,19.1,5.455-8.755,12.454-19.383S203.557,399.053,203.677,399.132Z" fill="#eb996e"/><path d="M321.524,302.192c.02.143-9.325,1.628-20.871,3.317s-20.927,2.944-20.948,2.8,9.322-1.627,20.873-3.316S321.5,302.05,321.524,302.192Z" fill="#263238"/><path d="M322.246,306.211c.022.142-8.388,1.587-18.782,3.228s-18.841,2.855-18.864,2.713,8.386-1.587,18.783-3.228S322.223,306.069,322.246,306.211Z" fill="#263238"/><path d="M466.364,477.81c0,.144-96.877.261-216.354.261-119.518,0-216.374-.117-216.374-.261s96.856-.26,216.374-.26C369.487,477.55,466.364,477.667,466.364,477.81Z" fill="#263238"/></g></svg>